/* XPM */
static const char * drag_plate_35_xpm[] = {
"35 35 216 2",
"  	c None",
". 	c #F6F6F6",
"+ 	c #EDEDED",
"@ 	c #E5E5E5",
"# 	c #DEDEDE",
"$ 	c #EEEEEE",
"% 	c #F7F7F7",
"& 	c #EAEAEA",
"* 	c #CFCFCF",
"= 	c #B0B0B0",
"- 	c #999999",
"; 	c #979797",
"> 	c #A4A4A4",
", 	c #A2A2A2",
"' 	c #9A9A9A",
") 	c #B4B4B4",
"! 	c #E0E0E0",
"~ 	c #A5A5A5",
"{ 	c #959595",
"] 	c #969696",
"^ 	c #828282",
"/ 	c #727272",
"( 	c #858585",
"_ 	c #929292",
": 	c #A8A8A8",
"< 	c #F8F8F8",
"[ 	c #BEBEBE",
"} 	c #8F8F8F",
"| 	c #989898",
"1 	c #8A8A8A",
"2 	c #898989",
"3 	c #838383",
"4 	c #A3A3A3",
"5 	c #909090",
"6 	c #C7C7C7",
"7 	c #FAFAFA",
"8 	c #E2E2E2",
"9 	c #A1A1A1",
"0 	c #8C8C8C",
"a 	c #9D9D9D",
"b 	c #9F9F9F",
"c 	c #9C9C9C",
"d 	c #A0A0A0",
"e 	c #8B8B8B",
"f 	c #A6A6A6",
"g 	c #E6E6E6",
"h 	c #9B9B9B",
"i 	c #AAAAAA",
"j 	c #ECECEC",
"k 	c #A7A7A7",
"l 	c #ACACAC",
"m 	c #F3F3F3",
"n 	c #F5F5F5",
"o 	c #ABABAB",
"p 	c #9E9E9E",
"q 	c #F9F9F9",
"r 	c #B7B7B7",
"s 	c #BFBFBF",
"t 	c #8D8D8D",
"u 	c #A3A5A4",
"v 	c #959796",
"w 	c #9AA59E",
"x 	c #8FA698",
"y 	c #7AA88C",
"z 	c #7DA68D",
"A 	c #6E987F",
"B 	c #A1A3A2",
"C 	c #F2F2F2",
"D 	c #A9A9A9",
"E 	c #78A88B",
"F 	c #2B824E",
"G 	c #2E9155",
"H 	c #2B9254",
"I 	c #38915B",
"J 	c #469063",
"K 	c #4F8F68",
"L 	c #B8B8B8",
"M 	c #9CA5A0",
"N 	c #39905C",
"O 	c #37AE66",
"P 	c #2E9156",
"Q 	c #678D76",
"R 	c #F4F4F4",
"S 	c #A2A5A3",
"T 	c #3D905F",
"U 	c #459063",
"V 	c #6B8D78",
"W 	c #D2D2D2",
"X 	c #B1B1B1",
"Y 	c #919191",
"Z 	c #6FA986",
"` 	c #AA3A37",
" .	c #957170",
"..	c #37AD66",
"+.	c #5B8E6F",
"@.	c #939393",
"#.	c #FBFBFB",
"$.	c #419060",
"%.	c #C94441",
"&.	c #37915A",
"*.	c #678C76",
"=.	c #F1F1F1",
"-.	c #488C63",
";.	c #FF5753",
">.	c #8D6968",
",.	c #498F65",
"'.	c #A3A4A3",
").	c #EFEFEF",
"!.	c #E9E9E9",
"~.	c #349159",
"{.	c #44875F",
"].	c #468C61",
"^.	c #6A8C78",
"/.	c #E1E1E1",
"(.	c #E3E3E3",
"_.	c #518F69",
":.	c #309156",
"<.	c #46AC6E",
"[.	c #DAD9DA",
"}.	c #5A866B",
"|.	c #58AB79",
"1.	c #4CAC72",
"2.	c #578E6D",
"3.	c #5F8D72",
"4.	c #409060",
"5.	c #5EA47A",
"6.	c #4AAC71",
"7.	c #5F856E",
"8.	c #FEFDFE",
"9.	c #439061",
"0.	c #39AD67",
"a.	c #638570",
"b.	c #8E8E8E",
"c.	c #8D6A68",
"d.	c #658D75",
"e.	c #55AB77",
"f.	c #C1C0C1",
"g.	c #886463",
"h.	c #8A6766",
"i.	c #53AB76",
"j.	c #DBDBDB",
"k.	c #8E6A69",
"l.	c #51AB75",
"m.	c #C0C0C0",
"n.	c #38AD66",
"o.	c #508F69",
"p.	c #926E6D",
"q.	c #C8C8C8",
"r.	c #846463",
"s.	c #715453",
"t.	c #906C6B",
"u.	c #BDBDBD",
"v.	c #906D6B",
"w.	c #4F9E6F",
"x.	c #4C9F6C",
"y.	c #509D6F",
"z.	c #B45454",
"A.	c #D4645F",
"B.	c #D16562",
"C.	c #D66362",
"D.	c #D36561",
"E.	c #D26562",
"F.	c #8D7575",
"G.	c #907475",
"H.	c #8C7370",
"I.	c #4E8F67",
"J.	c #567260",
"K.	c #100F10",
"L.	c #000000",
"M.	c #7A767A",
"N.	c #8BA796",
"O.	c #2E9056",
"P.	c #516B5C",
"Q.	c #151415",
"R.	c #6B686B",
"S.	c #DFDFDF",
"T.	c #C44744",
"U.	c #665A5D",
"V.	c #353235",
"W.	c #979697",
"X.	c #E8E8E8",
"Y.	c #AFAFAF",
"Z.	c #908F90",
"`.	c #947170",
" +	c #0B0A0B",
".+	c #5F5C5F",
"++	c #CBCCCB",
"@+	c #FCFCFC",
"#+	c #CBCBCB",
"$+	c #707470",
"%+	c #0F100F",
"&+	c #050505",
"*+	c #191A19",
"=+	c #686568",
"-+	c #666A66",
";+	c #BABABA",
">+	c #937170",
",+	c #676B67",
"'+	c #141514",
")+	c #4B4A4B",
"!+	c #494949",
"~+	c #313431",
"{+	c #201E20",
"]+	c #4F4B4F",
"^+	c #987573",
"/+	c #A58180",
"(+	c #CDCDCD",
"_+	c #7B7F7B",
":+	c #4B4D4B",
"<+	c #302D30",
"[+	c #6A646A",
"}+	c #BE9B99",
"|+	c #BA9695",
"1+	c #D8C3C2",
"2+	c #6A656A",
"3+	c #656665",
"                            . + @ # @ $ %                             ",
"                      & * = - ; > ; , ; ' ) * $                       ",
"                  ! ~ { ; ; ; ] ^ / ( ; ; ; ; _ : @                   ",
"              < [ } > | ; ; _ 1 2 3 1 2 { ; ; ' 4 5 6 7               ",
"            8 ~ 9 0 ; > , ; a a b ; c d - | ~ , ; e > f $             ",
"          g : ' ' ; ~ h ' ~ d c ~ ; ~ ; ~ > ; b ~ ; | c i j           ",
"        $ k ; , ~ ' { 9 ~ ~ ; ~ ~ ; ~ ~ ; ~ ~ a { a ~ d ; l m         ",
"      n o - ~ ~ ~ ] h ; > | > ~ ~ ; ~ ~ p p 9 ; h ' ~ ~ ~ ; = q       ",
"      r ' ~ ~ ~ | > ~ ~ ; e ; ; ' { - ; ; 1 h ~ ~ 9 h ~ ~ ~ | s       ",
"    & t ~ ~ ~ - 4 ~ u ~ v w x y z A B ~ ~ b a ~ ~ ~ d c ~ ~ ~ 0 C     ",
"    D p ~ ~ c d ~ ~ E F G H H H H H I J K ~ ; ~ ~ ~ ~ c d ~ ~ ] L     ",
"  & ' ; ~ 4 - ~ ~ M N H O O O O O O O O P Q a b ~ ~ ~ ~ ; ~ ~ ; | R   ",
"  6 ~ ; ~ ; ~ ~ S T H O O O O O O O O O O U V ; ~ ~ ~ ~ 4 - b a 4 W   ",
"  X ~ ~ Y c ~ ~ Z H O O O O O O O `  .O O ..+.; ~ ~ ~ ~ ~ @.' ~ ~ r   ",
"#.9 ~ ~ ; | a ~ $.H O O O O O O %.%.%. .O O &.*.- ~ ~ ~ - c | ~ ~ d   ",
"=.~ ~ , ' ~ b ; -.O O O O O O %.%.;.;.%.>.O O ,.; > | ; '.~ ; ~ ~ > ).",
"!.~ ~ ; ~ ~ ~ ~ ~.O O O O O %.%.;.;.;.;.%. .O H {.].^.~ ~ ~ 9 h ~ ~ /.",
"(.~ ~ ; ~ ~ ~ ~ _.:.O O O O  . .%.;.;. . . .O O O <.V ~ ~ ~ ~ ; ~ ~ [.",
"& ~ ~ ; ~ ~ ~ ~ ~ }.&.|.1.2.3.4.%.;.;. .O O O O O 5.V ~ ~ ~ ~ ; ~ , + ",
"n | , ' ~ ~ ~ ~ ~ ; V V V V ~ _.%.;.;. .O O O O 6.7.V ~ ~ ~ ~ ; ~ | 8.",
"  b - b ~ ~ ~ ~ ~ ; ~ ~ ~ ~ ~ 9.%.;.;. .O O O 0.3.a.~ ~ ~ ~ ~ ; b D   ",
"  L b.9 ~ ` %.%.%.c.~ ~ ~ ~ ~ d.%.;.;. .O O O e.V ; ` %.%.%. .| ; f.  ",
"  W a { - %.;.;.g.h.~ ~ ~ ~ ~ ~ %.;.;. .O O O i.V ; >.%.;.;. .5 > j.  ",
"  =.~ ; 4 %.;.;.%.k.~ ~ ~ ~ ~ ~ %.;.;.>.O O O l.V ; %.%.;.;. .; k %   ",
"    m.; ~ %.;.;.;.%.%. .~ ~ ~ ~ %.;.;. .O O n.o.%.%.%.;.;.;.p.; q.    ",
"    ).| ~ %. .%.;.;.;.%.%.%.%. .r.s.r. .%.%.%.%.%.;.;.;. .%.t.h n     ",
"      u., v. . .%.;.;.;.;.;.;. .J w.x.y.z.A.B.B.C.D.E.F.G.H.d q.      ",
"      . - ~ ~ ~  .>.%.;.;.;.;. .I.J.K.L.L.L.L.L.L.L.L.K.M.~ c #.      ",
"        + a ~ ~ ~ ; t. . . . . .N.O.P.Q.L.L.L.L.L.L.Q.R.4 d m         ",
"          S.c c ~ ; ~ ~ ~ ~ ~ ~ ` %.T.U.K.L.L.L.L.L.V.W.b X.          ",
"            ).Y.; Z.c ~ ~ ~ ~ ~ %.;.;.`.M.L.L.L.L.L. +.+++            ",
"              @+#+f } ; ; ; ; ; %.;.;. .; $+%+L.L.&+*+ +L.=+-+        ",
"                  j ;+p ~ ~ %.%.%.;.;.%.%.>+,+'+L.)+  !+~+L.{+]+      ",
"                      . W f.^+ .%.;.;. .^+/+(+_+%+        :+<+L.[+    ",
"                              . }+|+}+1+        2+            3+      "};
