/* XPM */
static const char * drag_globe_35_xpm[] = {
"35 35 155 2",
"  	c None",
". 	c #F6F6F6",
"+ 	c #EDEDED",
"@ 	c #E5E5E5",
"# 	c #DEDEDE",
"$ 	c #EEEEEE",
"% 	c #F7F7F7",
"& 	c #EAEAEA",
"* 	c #CFCFCF",
"= 	c #B0B0B0",
"- 	c #999999",
"; 	c #979797",
"> 	c #A4A4A4",
", 	c #A2A2A2",
"' 	c #9A9A9A",
") 	c #B4B4B4",
"! 	c #E0E0E0",
"~ 	c #A5A5A5",
"{ 	c #959595",
"] 	c #969696",
"^ 	c #828282",
"/ 	c #727272",
"( 	c #858585",
"_ 	c #929292",
": 	c #A8A8A8",
"< 	c #F8F8F8",
"[ 	c #BEBEBE",
"} 	c #8F8F8F",
"| 	c #989898",
"1 	c #8A8A8A",
"2 	c #898989",
"3 	c #838383",
"4 	c #A3A3A3",
"5 	c #909090",
"6 	c #C7C7C7",
"7 	c #FAFAFA",
"8 	c #E2E2E2",
"9 	c #A1A1A1",
"0 	c #8C8C8C",
"a 	c #9D9D9D",
"b 	c #9F9F9F",
"c 	c #9C9C9C",
"d 	c #A0A0A0",
"e 	c #8B8B8B",
"f 	c #A6A6A6",
"g 	c #E6E6E6",
"h 	c #9B9B9B",
"i 	c #AAAAAA",
"j 	c #ECECEC",
"k 	c #A7A7A7",
"l 	c #ACACAC",
"m 	c #F3F3F3",
"n 	c #F5F5F5",
"o 	c #ABABAB",
"p 	c #9E9E9E",
"q 	c #F9F9F9",
"r 	c #B7B7B7",
"s 	c #BFBFBF",
"t 	c #8D8D8D",
"u 	c #F2F2F2",
"v 	c #A9A9A9",
"w 	c #B8B8B8",
"x 	c #A5A4A5",
"y 	c #F4F4F4",
"z 	c #D2D2D2",
"A 	c #B1B1B1",
"B 	c #919191",
"C 	c #AA3A37",
"D 	c #957170",
"E 	c #939393",
"F 	c #FBFBFB",
"G 	c #C94441",
"H 	c #F1F1F1",
"I 	c #FF5753",
"J 	c #8D6968",
"K 	c #A3A4A3",
"L 	c #EFEFEF",
"M 	c #E9E9E9",
"N 	c #E1E1E1",
"O 	c #E3E3E3",
"P 	c #DAD9DA",
"Q 	c #FEFDFE",
"R 	c #8E8E8E",
"S 	c #8D6A68",
"T 	c #C1C0C1",
"U 	c #886463",
"V 	c #8A6766",
"W 	c #DBDBDB",
"X 	c #8E6A69",
"Y 	c #C0C0C0",
"Z 	c #926E6D",
"` 	c #C8C8C8",
" .	c #846463",
"..	c #715453",
"+.	c #906C6B",
"@.	c #BDBDBD",
"#.	c #906D6B",
"$.	c #908E90",
"%.	c #979997",
"&.	c #B45454",
"*.	c #D4645F",
"=.	c #D16562",
"-.	c #D66362",
";.	c #D36561",
">.	c #D26562",
",.	c #8D7575",
"'.	c #907475",
").	c #8C7370",
"!.	c #707470",
"~.	c #100F10",
"{.	c #000000",
"].	c #7A767A",
"^.	c #969596",
"/.	c #6B686B",
"(.	c #151415",
"_.	c #DFDFDF",
":.	c #C44744",
"<.	c #665A5D",
"[.	c #353235",
"}.	c #979697",
"|.	c #E8E8E8",
"1.	c #AFAFAF",
"2.	c #908F90",
"3.	c #947170",
"4.	c #0B0A0B",
"5.	c #5F5C5F",
"6.	c #CBCCCB",
"7.	c #FCFCFC",
"8.	c #CBCBCB",
"9.	c #0F100F",
"0.	c #050505",
"a.	c #191A19",
"b.	c #686568",
"c.	c #666A66",
"d.	c #BABABA",
"e.	c #937170",
"f.	c #676B67",
"g.	c #141514",
"h.	c #4B4A4B",
"i.	c #494949",
"j.	c #313431",
"k.	c #201E20",
"l.	c #4F4B4F",
"m.	c #987573",
"n.	c #A58180",
"o.	c #CDCDCD",
"p.	c #7B7F7B",
"q.	c #4B4D4B",
"r.	c #302D30",
"s.	c #6A646A",
"t.	c #BE9B99",
"u.	c #BA9695",
"v.	c #D8C3C2",
"w.	c #6A656A",
"x.	c #656665",
"                            . + @ # @ $ %                             ",
"                      & * = - ; > ; , ; ' ) * $                       ",
"                  ! ~ { ; ; ; ] ^ / ( ; ; ; ; _ : @                   ",
"              < [ } > | ; ; _ 1 2 3 1 2 { ; ; ' 4 5 6 7               ",
"            8 ~ 9 0 ; > , ; a a b ; c d - | ~ , ; e > f $             ",
"          g : ' ' ; ~ h ' ~ d c ~ ; ~ ; ~ > ; b ~ ; | c i j           ",
"        $ k ; , ~ ' { 9 ~ ~ ; ~ ~ ; ~ ~ ; ~ ~ a { a ~ d ; l m         ",
"      n o - ~ ~ ~ ] h ; > | > ~ ~ ; ~ ~ p p 9 ; h ' ~ ~ ~ ; = q       ",
"      r ' ~ ~ ~ | > ~ ~ ; e ; ; ' { - ; ; 1 h ~ ~ 9 h ~ ~ ~ | s       ",
"    & t ~ ~ ~ - 4 ~ ~ ~ ; ~ ~ ~ , t 4 ~ ~ b a ~ ~ ~ d c ~ ~ ~ 0 u     ",
"    v p ~ ~ c d ~ ~ ~ > | ~ ~ ~ ~ ; ~ ~ ~ ~ ; ~ ~ ~ ~ c d ~ ~ ] w     ",
"  & ' ; ~ 4 - ~ ~ ~ ~ | x ~ ~ ~ ~ ; ~ ~ ~ ~ a b ~ ~ ~ ~ ; ~ ~ ; | y   ",
"  6 ~ ; ~ ; ~ ~ ~ ~ ~ ; ~ ~ ~ ~ ~ ; ~ ~ ~ ~ ~ ; ~ ~ ~ ~ 4 - b a 4 z   ",
"  A ~ ~ B c ~ ~ ~ ~ p p ~ ~ ~ ~ ~ C D ~ ~ ~ ~ ; ~ ~ ~ ~ ~ E ' ~ ~ r   ",
"F 9 ~ ~ ; | a ~ ~ ~ ; ~ ~ ~ ~ ~ G G G D ~ ~ ~ 4 - ~ ~ ~ - c | ~ ~ d   ",
"H ~ ~ , ' ~ b ; ' ~ ; ~ ~ ~ ~ G G I I G J ~ ~ ~ ; > | ; K ~ ; ~ ~ > L ",
"M ~ ~ ; ~ ~ ~ ~ , { 0 ; ' > G G I I I I G D | ; 1 | > ~ ~ ~ 9 h ~ ~ N ",
"O ~ ~ ; ~ ~ ~ ~ ~ | > ~ , | D D G I I D D D > ~ - 4 ~ ~ ~ ~ ~ ; ~ ~ P ",
"& ~ ~ ; ~ ~ ~ ~ ~ ; ~ ~ ~ ~ ~ ~ G I I D ~ ~ ~ ~ > | ~ ~ ~ ~ ~ ; ~ , + ",
"n | , ' ~ ~ ~ ~ ~ ; ~ ~ ~ ~ ~ ~ G I I D ~ ~ ~ ~ ~ ; ~ ~ ~ ~ ~ ; ~ | Q ",
"  b - b ~ ~ ~ ~ ~ ; ~ ~ ~ ~ ~ ~ G I I D ~ ~ ~ ~ ~ ; ~ ~ ~ ~ ~ ; b v   ",
"  w R 9 ~ C G G G S ~ ~ ~ ~ ~ ~ G I I D ~ ~ ~ ~ ~ ; C G G G D | ; T   ",
"  z a { - G I I U V ~ ~ ~ ~ ~ ~ G I I D ~ ~ ~ ~ ~ ; J G I I D 5 > W   ",
"  H ~ ; 4 G I I G X ~ ~ ~ ~ ~ ~ G I I J ~ ~ ~ ~ ~ ; G G I I D ; k %   ",
"    Y ; ~ G I I I G G D ~ ~ ~ ~ G I I D ~ ~ ~ ~ G G G I I I Z ; `     ",
"    L | ~ G D G I I I G G G G D  ... .D G G G G G I I I D G +.h n     ",
"      @., #.D D G I I I I I I D ~ $.%.; &.*.=.=.-.;.>.,.'.).d `       ",
"      . - ~ ~ ~ D J G I I I I D ~ !.~.{.{.{.{.{.{.{.{.~.].~ c F       ",
"        + a ~ ~ ~ ; +.D D D D D ~ ^./.(.{.{.{.{.{.{.(./.4 d m         ",
"          _.c c ~ ; ~ ~ ~ ~ ~ ~ C G :.<.~.{.{.{.{.{.[.}.b |.          ",
"            L 1.; 2.c ~ ~ ~ ~ ~ G I I 3.].{.{.{.{.{.4.5.6.            ",
"              7.8.f } ; ; ; ; ; G I I D ; !.9.{.{.0.a.4.{.b.c.        ",
"                  j d.p ~ ~ G G G I I G G e.f.g.{.h.  i.j.{.k.l.      ",
"                      . z T m.D G I I D m.n.o.p.9.        q.r.{.s.    ",
"                              . t.u.t.v.        w.            x.      "};
