/* XPM */
static const char * measure_angle_35_xpm[] = {
"35 35 273 2",
"  	c None",
". 	c #F6F6F6",
"+ 	c #EDEDED",
"@ 	c #E5E5E5",
"# 	c #DEDEDE",
"$ 	c #EEEEEE",
"% 	c #F7F7F7",
"& 	c #0B0B0B",
"* 	c #000000",
"= 	c #6B676B",
"- 	c #EAEAEA",
"; 	c #CFCFCF",
"> 	c #B0B0B0",
", 	c #999999",
"' 	c #979797",
") 	c #A4A4A4",
"! 	c #A2A2A2",
"~ 	c #9A9A9A",
"{ 	c #B4B4B4",
"] 	c #1D1D1D",
"^ 	c #202020",
"/ 	c #424242",
"( 	c #535153",
"_ 	c #414041",
": 	c #E0E0E0",
"< 	c #A5A5A5",
"[ 	c #959595",
"} 	c #969696",
"| 	c #828282",
"1 	c #727272",
"2 	c #858585",
"3 	c #929292",
"4 	c #A8A8A8",
"5 	c #585758",
"6 	c #494949",
"7 	c #808080",
"8 	c #807E80",
"9 	c #525052",
"0 	c #666266",
"a 	c #E5E3E5",
"b 	c #BDBDBD",
"c 	c #8F8F8F",
"d 	c #989898",
"e 	c #8A8A8A",
"f 	c #898989",
"g 	c #838383",
"h 	c #A3A3A3",
"i 	c #909090",
"j 	c #C7C7C7",
"k 	c #FAFAFA",
"l 	c #484448",
"m 	c #504E50",
"n 	c #6A686A",
"o 	c #8E8D8E",
"p 	c #8F8E8F",
"q 	c #919191",
"r 	c #989798",
"s 	c #9D9D9D",
"t 	c #9F9F9F",
"u 	c #9C9C9C",
"v 	c #A0A0A0",
"w 	c #8B8B8B",
"x 	c #606260",
"y 	c #3F3B3F",
"z 	c #454145",
"A 	c #504C50",
"B 	c #4F4E4F",
"C 	c #676667",
"D 	c #7E7D7E",
"E 	c #5E5D5E",
"F 	c #5C5B5C",
"G 	c #747474",
"H 	c #878587",
"I 	c #8A898A",
"J 	c #969596",
"K 	c #AAAAAA",
"L 	c #ECECEC",
"M 	c #4D4A4D",
"N 	c #515051",
"O 	c #464546",
"P 	c #323232",
"Q 	c #545454",
"R 	c #656665",
"S 	c #6B6A6B",
"T 	c #6A696A",
"U 	c #666566",
"V 	c #7D7B7D",
"W 	c #888888",
"X 	c #989698",
"Y 	c #9F9E9F",
"Z 	c #ACACAC",
"` 	c #F3F3F3",
" .	c #C4C1C4",
"..	c #878487",
"+.	c #2F2F2F",
"@.	c #111111",
"#.	c #252525",
"$.	c #5A595A",
"%.	c #636363",
"&.	c #5A5A5A",
"*.	c #6E6E6E",
"=.	c #6A6A6A",
"-.	c #828082",
";.	c #737173",
">.	c #9F9D9F",
",.	c #9E9E9E",
"'.	c #F9F9F9",
").	c #B4B3B4",
"!.	c #8B878B",
"~.	c #373737",
"{.	c #0A0A0A",
"].	c #474747",
"^.	c #918E91",
"/.	c #939393",
"(.	c #6A6B6A",
"_.	c #4B4C4B",
":.	c #696A69",
"<.	c #525352",
"[.	c #807F80",
"}.	c #636463",
"|.	c #A1A1A1",
"1.	c #9B9B9B",
"2.	c #BFBFBF",
"3.	c #8D8D8D",
"4.	c #979697",
"5.	c #535253",
"6.	c #181718",
"7.	c #575657",
"8.	c #A09EA0",
"9.	c #A7A6A7",
"0.	c #949394",
"a.	c #7C7A7C",
"b.	c #707170",
"c.	c #4D4E4D",
"d.	c #616061",
"e.	c #2D2D2D",
"f.	c #3B3B3B",
"g.	c #999899",
"h.	c #686C68",
"i.	c #6B6C6B",
"j.	c #959395",
"k.	c #979997",
"l.	c #919291",
"m.	c #9B999B",
"n.	c #878987",
"o.	c #F2F2F2",
"p.	c #A9A9A9",
"q.	c #A6A5A6",
"r.	c #272627",
"s.	c #444444",
"t.	c #959295",
"u.	c #A4A3A4",
"v.	c #9C9B9C",
"w.	c #A5A3A5",
"x.	c #A6A6A6",
"y.	c #969396",
"z.	c #898689",
"A.	c #6E6D6E",
"B.	c #757575",
"C.	c #7E817E",
"D.	c #100F10",
"E.	c #7A767A",
"F.	c #B8B8B8",
"G.	c #898889",
"H.	c #302F30",
"I.	c #252625",
"J.	c #7F7F7F",
"K.	c #A5A4A5",
"L.	c #9D9B9D",
"M.	c #D1D2D1",
"N.	c #D2D3D2",
"O.	c #6B686B",
"P.	c #151415",
"Q.	c #F4F4F4",
"R.	c #212121",
"S.	c #D5D5D5",
"T.	c #D6D7D6",
"U.	c #A3A2A3",
"V.	c #353235",
"W.	c #959495",
"X.	c #D2D2D2",
"Y.	c #B1B1B1",
"Z.	c #9A999A",
"`.	c #757475",
" +	c #1C1C1C",
".+	c #403F40",
"++	c #0B0A0B",
"@+	c #5B585B",
"#+	c #909190",
"$+	c #B7B7B7",
"%+	c #FBFBFB",
"&+	c #8C8B8C",
"*+	c #3A393A",
"=+	c #8E8C8E",
"-+	c #737773",
";+	c #0F100F",
">+	c #050505",
",+	c #191A19",
"'+	c #6C6A6C",
")+	c #7F817F",
"!+	c #9E9D9E",
"~+	c #F1F1F1",
"{+	c #535353",
"]+	c #141414",
"^+	c #676467",
"/+	c #646764",
"(+	c #141514",
"_+	c #444344",
":+	c #999A99",
"<+	c #575757",
"[+	c #313431",
"}+	c #201E20",
"|+	c #4F4B4F",
"1+	c #BCBABC",
"2+	c #E9E9E9",
"3+	c #7B7D7B",
"4+	c #242524",
"5+	c #4F4D4F",
"6+	c #646864",
"7+	c #9A9C9A",
"8+	c #4B4D4B",
"9+	c #302D30",
"0+	c #787278",
"a+	c #E3E3E3",
"b+	c #3B3A3B",
"c+	c #2A2A2A",
"d+	c #797579",
"e+	c #949594",
"f+	c #908D90",
"g+	c #676867",
"h+	c #BEBDBE",
"i+	c #5B5B5B",
"j+	c #262626",
"k+	c #F5F5F5",
"l+	c #B8BBB8",
"m+	c #908E90",
"n+	c #979897",
"o+	c #FEFDFE",
"p+	c #5C5E5C",
"q+	c #878B87",
"r+	c #8E8E8E",
"s+	c #C1C0C1",
"t+	c #A09FA0",
"u+	c #DBDBDB",
"v+	c #5D5A5D",
"w+	c #A7A7A7",
"x+	c #C0C0C0",
"y+	c #9D9C9D",
"z+	c #C8C8C8",
"A+	c #EFEFEF",
"B+	c #959695",
"C+	c #555555",
"D+	c #676B67",
"E+	c #9E9F9E",
"F+	c #6F6A6F",
"G+	c #757175",
"H+	c #A1A2A1",
"I+	c #8C8C8C",
"J+	c #DFDFDF",
"K+	c #E8E8E8",
"L+	c #AFAFAF",
"M+	c #908F90",
"N+	c #949494",
"O+	c #B5B5B5",
"P+	c #FCFCFC",
"Q+	c #CBCBCB",
"R+	c #D1D1D1",
"S+	c #BABABA",
"T+	c #C1C1C1",
"U+	c #F0F0F0",
"V+	c #ABABAB",
"W+	c #D3D3D3",
"X+	c #F8F8F8",
"                            . + @ # @ $ %                             ",
"  & *   =             - ; > , ' ) ' ! ' ~ { ; $                       ",
"  ] ^ / ( _       : < [ ' ' ' } | 1 2 ' ' ' ' 3 4 @                   ",
"  5 6 7 8 9 0 a b c ) d ' ' 3 e f g e f [ ' ' ~ h i j k               ",
"  9 l     m n o p q r ) ! ' s s t ' u v , d < ! ' w ) x $             ",
"  y z A B C D E F G H I J < t u < ' < ' < ) ' t < x x x K L           ",
"    M N O P Q N R S T U V W X Y < ' < < ' < < s x x < v ' Z `         ",
"       ...+.@.#.$.%.R &.*.=.-.;.>.' < < ,.,.x x x ~ < < < ' > '.      ",
"      ).!.~.{.].^./.2 (.x _.:.<.[.}., ' ' x x < < |.1.< < < d 2.      ",
"    - 3.4.5.6.7.8.< 9.Y 0.a.b.c.d.e.f.g.h.i.j.k.' ' J l.' ' m.n.o.    ",
"    p.,.q.V r.s.t.u.) ) v.w.x.y.z.A.B.C.D.* * * * * * * * D.E.} F.    ",
"  - ~ ' ) G.H.I.J.) < d K.) < q.q.L.M.N.O.P.* * * * * * P.O.h ' d Q.  ",
"  j < ' < [ &.R.T ! ) ' < < < < < S.T.< U.O.D.* * * * * V.W.t s h X.  ",
"  Y.< < q Z.`. +.+0.,.,.< < < < T.T.< < < h E.* * * * * ++@+#+< < $+  ",
"%+|.< < ' d &+*++.=+g.< < < < T.T.' < < < < < -+;+* * >+,+++* '+)+!+  ",
"~+< < ! ~ < ~ {+]+^+/.< < < T.T.< ' < < < < < h /+(+* _+:+<+[+* }+|+1+",
"2+< < ' < < < 3+4+5+G.' ~ T.T.< < ' < < < ! d ' f 6+;+' < |.7+8+9+* 0+",
"a+< < ' < < < [ b+c+w < T.T.' ' ' e ' ' ' ~ ) < , |.d+k.< < < e+f+g+h+",
"- < < ' < < < , i+j+w T.T.< < < < ' < < < < < < ) d < 7+< < < ' < ! + ",
"k+d ! ~ < < < < i {+< l+' m.k.' ' m+n+' ' m.7+< < ' < < < < < ' < d o+",
"  t , t < < < < < p+q+D.* * * * * * * * D.E.< < < ' < < < < < ' t p.  ",
"  F.r+|.< < < < x x h O.P.* * * * * * P.O.h < < < ' < < < < < d ' s+  ",
"  X.s [ , < < x x ' < U.O.D.* * * * * V.t+< < < < ' < < < ) ' i ) u+  ",
"  ~+< ' h ' d x K.d < < h E.* * * * * ++v+n+< < < ' < ! ' d < ' w+%   ",
"    x+' < < x x r+/.! < < < -+;+* * >+,+++* '+)+y+f ' ~ < < < ' z+    ",
"    A+d < x x < h , ~ ' ' ' B+/+(+* _+i C+[+* }+|+H < < < < < 1.k+    ",
"      b ! x < < < ' < < < < < ! D+;+' < |.E+8+9+* F+< < < < v z+      ",
"      . x x < < < ' < < < < < < h G+k.< < < H+f+g+I+< < < < u %+      ",
"        + s < < < ' < < < < < < < ' 7+< < < < < < ' < < < v `         ",
"          J+u u < ' < < < < < < < ' < < < < < < < ' < 1.t K+          ",
"            A+L+' M+u < < < < < < ' < < < < < < N+[ ' O+`             ",
"              P+Q+x.c ' ' ' ' ' ~ 3 d ' ' ' ' ' i x.R+                ",
"                  L S+,.< < < < ! i ) < < < < t T+U+                  ",
"                      . X.s+V+< < 1.< < V+T+W+X+                      ",
"                              . + @ + %                               "};
