/* XPM */
static const char * mode_observation_24_xpm[] = {
"24 24 216 2",
"  	c None",
". 	c #B87F5C",
"+ 	c #BA8362",
"@ 	c #BC8865",
"# 	c #CB8156",
"$ 	c #C3794E",
"% 	c #BF7B51",
"& 	c #C5865B",
"* 	c #CD9168",
"= 	c #D39970",
"- 	c #D79E77",
"; 	c #D9A27B",
"> 	c #DCA884",
", 	c #DDAE8F",
"' 	c #DFB69D",
") 	c #DF9765",
"! 	c #CF7F4D",
"~ 	c #C06C41",
"{ 	c #B3623C",
"] 	c #AB6B49",
"^ 	c #AF7553",
"/ 	c #B27755",
"( 	c #B3866C",
"_ 	c #AE7A5B",
": 	c #B1795A",
"< 	c #BC8363",
"[ 	c #C99270",
"} 	c #D3A184",
"| 	c #D7B19B",
"1 	c #D9BFAD",
"2 	c #DE935F",
"3 	c #D6834B",
"4 	c #BE7F57",
"5 	c #A77A5F",
"6 	c #8A6B5A",
"7 	c #877256",
"8 	c #9B7F57",
"9 	c #907151",
"0 	c #93806C",
"a 	c #8F725D",
"b 	c #876B5A",
"c 	c #886859",
"d 	c #926A59",
"e 	c #A6705A",
"f 	c #C58F78",
"g 	c #D0A491",
"h 	c #D5B7A8",
"i 	c #E09863",
"j 	c #D18F60",
"k 	c #BF8F6F",
"l 	c #B89F8E",
"m 	c #B7A195",
"n 	c #887E64",
"o 	c #8B8055",
"p 	c #6B5E44",
"q 	c #403C37",
"r 	c #33332F",
"s 	c #55483B",
"t 	c #766141",
"u 	c #6F634C",
"v 	c #8D7667",
"w 	c #9B7567",
"x 	c #976A5A",
"y 	c #B1816E",
"z 	c #C79C88",
"A 	c #D2B3A4",
"B 	c #D7C0B5",
"C 	c #E49C69",
"D 	c #DE875C",
"E 	c #D09D82",
"F 	c #C9AC9B",
"G 	c #D1BAA6",
"H 	c #B59F8B",
"I 	c #867E62",
"J 	c #82754E",
"K 	c #5E4E37",
"L 	c #303230",
"M 	c #434645",
"N 	c #3A352E",
"O 	c #695C44",
"P 	c #676856",
"Q 	c #8C8373",
"R 	c #BEA9A0",
"S 	c #A57E6D",
"T 	c #9B6C5B",
"U 	c #AF7F6A",
"V 	c #CEA18C",
"W 	c #D5B5A6",
"X 	c #D8C4B8",
"Y 	c #E4B189",
"Z 	c #E4A179",
"` 	c #E48667",
" .	c #DEAC92",
"..	c #DDC3AD",
"+.	c #DDCAB3",
"@.	c #BCAB9B",
"#.	c #847D62",
"$.	c #877F57",
"%.	c #75664A",
"&.	c #707773",
"*.	c #939C99",
"=.	c #4B453B",
"-.	c #6A6048",
";.	c #63695C",
">.	c #8B8273",
",.	c #C4AEA4",
"'.	c #C7A390",
").	c #BB8B79",
"!.	c #AF7E67",
"~.	c #C0937F",
"{.	c #D3AB9A",
"].	c #D8C1B3",
"^.	c #E3B292",
"/.	c #E49A76",
"(.	c #E47B56",
"_.	c #E37D63",
":.	c #DF977C",
"<.	c #E1C1AE",
"[.	c #E1CFC0",
"}.	c #D5C6BB",
"|.	c #988B7A",
"1.	c #7F7F63",
"2.	c #8A805A",
"3.	c #8B8160",
"4.	c #ACAB99",
"5.	c #81734E",
"6.	c #797151",
"7.	c #6E6856",
"8.	c #9D8B80",
"9.	c #CAB2A7",
"0.	c #C89F8E",
"a.	c #C98A73",
"b.	c #CF9373",
"c.	c #CD9B83",
"d.	c #D1AD9A",
"e.	c #D8BFAF",
"f.	c #DF9A7F",
"g.	c #DF8569",
"h.	c #D46D57",
"i.	c #D57B60",
"j.	c #D8AA93",
"k.	c #DDCEC4",
"l.	c #DBD4CF",
"m.	c #C0B6AE",
"n.	c #827F6B",
"o.	c #797A65",
"p.	c #827E5F",
"q.	c #837D59",
"r.	c #7E7858",
"s.	c #746C57",
"t.	c #968979",
"u.	c #C6B9B1",
"v.	c #CEB8AE",
"w.	c #CC927B",
"x.	c #D09376",
"y.	c #D4A284",
"z.	c #D8B39C",
"A.	c #D9BBA9",
"B.	c #D8866B",
"C.	c #D88464",
"D.	c #D8906B",
"E.	c #D3AA97",
"F.	c #D5C8C2",
"G.	c #D7D3D1",
"H.	c #BBB9B2",
"I.	c #868578",
"J.	c #757060",
"K.	c #736D5B",
"L.	c #7C7662",
"M.	c #9D998F",
"N.	c #C9C2C0",
"O.	c #D0B9B3",
"P.	c #CF9C88",
"Q.	c #D19982",
"R.	c #D2A791",
"S.	c #D7B39F",
"T.	c #DCC1B1",
"U.	c #D8AD9A",
"V.	c #D7A790",
"W.	c #D6A48B",
"X.	c #D59C7A",
"Y.	c #D0997A",
"Z.	c #D4AB9B",
"`.	c #D3BFBB",
" +	c #D2C6C3",
".+	c #CBC4C1",
"++	c #C8BEBB",
"@+	c #CEC0BF",
"#+	c #D4BDBD",
"$+	c #D1A698",
"%+	c #D49D87",
"&+	c #D4A591",
"*+	c #D4B2A1",
"=+	c #D8BDAF",
"-+	c #DCC6B8",
";+	c #D5B9AC",
">+	c #D6B19C",
",+	c #CCA692",
"'+	c #D2A793",
")+	c #D0A38E",
"!+	c #D7A893",
"~+	c #D7AD9C",
"{+	c #D2A898",
"]+	c #D3A190",
"^+	c #D49E89",
"/+	c #D4A692",
"(+	c #D7B3A1",
"_+	c #D8BAAB",
":+	c #D9C1B3",
"<+	c #D0BCB1",
"[+	c #DABCAC",
"}+	c #DABBAA",
"|+	c #D8B7A7",
"1+	c #D5B2A0",
"2+	c #D8B6A4",
"3+	c #D7BCAE",
"                                                ",
"                                                ",
"                                                ",
"                                                ",
"                                                ",
"                                                ",
"                    . + @                       ",
"              # $ % & * = - ; > , '             ",
"          ) ! ~ { ] ^ / ( _ : < [ } | 1         ",
"        2 3 4 5 6 7 8 9 0 a b c d e f g h       ",
"      i j k l m n o p q r s t u v w x y z A B   ",
"    C D E F G H I J K L M N O P Q R S T U V W X ",
"  Y Z `  ...+.@.#.$.%.&.*.=.-.;.>.,.'.).!.~.{.].",
"^./.(._.:.<.[.}.|.1.2.3.4.5.6.7.8.9.0.a.b.c.d.e.",
"  f.g.h.i.j.k.l.m.n.o.p.q.r.s.t.u.v.w.x.y.z.A.  ",
"    f.B.C.D.E.F.G.H.I.J.K.L.M.N.O.P.Q.R.S.T.    ",
"      U.V.W.X.Y.Z.`. +.+++@+#+$+%+&+*+=+-+      ",
"          ;+>+,+'+)+!+~+{+]+^+/+(+_+:+          ",
"                <+;+[+}+|+1+2+3+                ",
"                                                ",
"                                                ",
"                                                ",
"                                                ",
"                                                "};
