/* XPM */
static const char * mode_plate_manip_24_xpm[] = {
"24 24 190 2",
"  	c None",
". 	c #CCCCCC",
"+ 	c #D4D4D4",
"@ 	c #CECECE",
"# 	c #CDCDCD",
"$ 	c #D5D5D5",
"% 	c #D6D6D6",
"& 	c #AEAEAE",
"* 	c #ADADAD",
"= 	c #9D9D9D",
"- 	c #979797",
"; 	c #8A8A8A",
"> 	c #9E9E9E",
", 	c #AFAFAF",
"' 	c #DADADA",
") 	c #CBCBCB",
"! 	c #9B9B9B",
"~ 	c #9A9A9A",
"{ 	c #969696",
"] 	c #919191",
"^ 	c #8C8C8C",
"/ 	c #929292",
"( 	c #9C9C9C",
"_ 	c #D0D0D0",
": 	c #BCBCBC",
"< 	c #9F9F9F",
"[ 	c #A0A0A0",
"} 	c #C2C2C2",
"| 	c #C0C0C0",
"1 	c #A3A3A3",
"2 	c #A2A2A2",
"3 	c #A1A1A1",
"4 	c #C4C4C4",
"5 	c #C7C7C7",
"6 	c #A4A4A4",
"7 	c #DFDFDF",
"8 	c #A3A4A4",
"9 	c #99A39D",
"0 	c #8A9990",
"a 	c #859F8F",
"b 	c #78A288",
"c 	c #729E84",
"d 	c #849C8E",
"e 	c #95A099",
"f 	c #9A9E9B",
"g 	c #A5A5A5",
"h 	c #E8E8E8",
"i 	c #B1B1B1",
"j 	c #98A49D",
"k 	c #459465",
"l 	c #309A5A",
"m 	c #309F5C",
"n 	c #359E5F",
"o 	c #3F9A63",
"p 	c #6C967C",
"q 	c #9A9C9B",
"r 	c #B9B9B9",
"s 	c #B2B2B2",
"t 	c #A2A5A3",
"u 	c #5A9873",
"v 	c #329D5C",
"w 	c #36AD65",
"x 	c #37AE66",
"y 	c #36AC65",
"z 	c #439A65",
"A 	c #7A9383",
"B 	c #B5B5B5",
"C 	c #A7A7A7",
"D 	c #80A28D",
"E 	c #35985D",
"F 	c #57936F",
"G 	c #939A96",
"H 	c #989898",
"I 	c #A8A8A8",
"J 	c #DBDBDB",
"K 	c #6F947E",
"L 	c #37A362",
"M 	c #3DA164",
"N 	c #769382",
"O 	c #9FA09F",
"P 	c #D1D1D1",
"Q 	c #D2D2D2",
"R 	c #709A81",
"S 	c #37A261",
"T 	c #35AA63",
"U 	c #38985E",
"V 	c #4B9568",
"W 	c #87988E",
"X 	c #D3D3D3",
"Y 	c #96A19A",
"Z 	c #53906B",
"` 	c #41A367",
" .	c #47AB6F",
"..	c #4E996C",
"+.	c #439A66",
"@.	c #55A374",
"#.	c #87998E",
"$.	c #949996",
"%.	c #7B9484",
"&.	c #7B9585",
"*.	c #8B9A91",
"=.	c #649577",
"-.	c #2F9C5B",
";.	c #45A86C",
">.	c #628C73",
",.	c #909C94",
"'.	c #D8D7D8",
").	c #6C957C",
"!.	c #309B5A",
"~.	c #40A869",
"{.	c #47A46C",
"].	c #609575",
"^.	c #7F8E85",
"/.	c #959595",
"(.	c #9F9E9F",
"_.	c #B3B3B3",
":.	c #9EA3A0",
"<.	c #369B5E",
"[.	c #479766",
"}.	c #233128",
"|.	c #0B0E0D",
"1.	c #0C0C0C",
"2.	c #0D0D0D",
"3.	c #0F0F0F",
"4.	c #2C2B2C",
"5.	c #A6A5A6",
"6.	c #C1C1C1",
"7.	c #A2A4A3",
"8.	c #399B60",
"9.	c #38AD66",
"0.	c #427E5A",
"a.	c #1F2120",
"b.	c #000000",
"c.	c #101010",
"d.	c #6C6A6C",
"e.	c #C5C5C5",
"f.	c #E7E7E7",
"g.	c #959C98",
"h.	c #359A5D",
"i.	c #38AE66",
"j.	c #5F9976",
"k.	c #6B7770",
"l.	c #131313",
"m.	c #010101",
"n.	c #070607",
"o.	c #0F0E0F",
"p.	c #050605",
"q.	c #C9C9C9",
"r.	c #419562",
"s.	c #35A963",
"t.	c #45A46B",
"u.	c #6D917B",
"v.	c #979F9A",
"w.	c #7B7D7B",
"x.	c #0C0D0C",
"y.	c #040404",
"z.	c #292929",
"A.	c #313131",
"B.	c #121212",
"C.	c #080808",
"D.	c #BBBBBB",
"E.	c #A4A5A4",
"F.	c #659C7B",
"G.	c #36A462",
"H.	c #44A46A",
"I.	c #649176",
"J.	c #98A09B",
"K.	c #999999",
"L.	c #7A7C7A",
"M.	c #ABABAB",
"N.	c #2F2F2F",
"O.	c #0B0B0B",
"P.	c #2F2E2F",
"Q.	c #989798",
"R.	c #879C8F",
"S.	c #5B9772",
"T.	c #6E907C",
"U.	c #ACABAC",
"V.	c #0C0B0C",
"W.	c #A6A6A6",
"X.	c #959896",
"Y.	c #8B938E",
"Z.	c #919793",
"`.	c #BFBFBF",
" +	c #E3E3E3",
".+	c #BDBDBD",
"++	c #B7B7B7",
"@+	c #ACACAC",
"#+	c #B8B8B8",
"$+	c #D7D7D7",
"                  . + @ # $ @                   ",
"            % & * = - ; ; - > * , '             ",
"          ) ! > ~ { ] ^ ^ / - ! > ( _           ",
"        : > { < > < = < > ( < > [ { < }         ",
"      | < 1 ! ! 2 < 3 [ [ 3 [ 3 ~ = 2 < 4       ",
"    5 [ 6 2 > < ( { > ( ( = { = < > 2 6 3 .     ",
"  7 = 6 2 < 8 9 0 a b c d e f > g 6 < 1 6 = h   ",
"  i > 6 = 6 j k l m m m n o p q 6 g 1 > g ! r   ",
"  s ( > 2 t u v w x x x x y z A < g g 3 = = B   ",
"_ C [ - 2 D E x x x x x x x x F G 6 g [ H 2 I   ",
"J g [ > > K L x x x x x x x x M N O ! O > 3 6 P ",
"Q g ! g g R S x x x x x x x x T U V W g 6 = g . ",
"X g ! g g Y Z `  ...+.x x x x x x @.#.g g ! 6 P ",
"P > > g g g $.%.&.*.=.-.x x x x ;.>.,.g g ! 3 '.",
"  = 3 g g g ! g g g ).!.x x ~.{.].^.= = = /.(.  ",
"  _.H < 1 g ( g g g :.<.x x [.}.|.1.2.2.3.4.5.  ",
"  6.( 3 > ! H 6 g g 7.8.x x 9.0.a.b.b.b.c.d.e.  ",
"  f.1 g g 2 ~ ( ! ! g.h.x x i.j.k.l.m.b.n.o.l.p.",
"    q.2 g g ! g g g 7.r.s.x t.u.v.w.x.y.z.A.B.C.",
"      D.6 g ! g g g E.F.G.H.I.J.g K.L.c.M.N.O.P.",
"        : 3 Q.1 g g g R.S.T.J.g 3 K.2 U.      V.",
"          P W.H ! ! ! X.Y.Z.! ! - I `.          ",
"             +.+++@+W.> < W.@+#+| h             ",
"                    $+X X $+                    "};
