/* XPM */
static const char * new_pin_35_xpm[] = {
"35 35 233 2",
"  	c None",
". 	c #F6F6F6",
"+ 	c #EDEDED",
"@ 	c #E5E5E5",
"# 	c #DEDEDE",
"$ 	c #EEEEEE",
"% 	c #F7F7F7",
"& 	c #EAEAEA",
"* 	c #CFCFCF",
"= 	c #B0B0B0",
"- 	c #999999",
"; 	c #979797",
"> 	c #A4A4A4",
", 	c #A2A2A2",
"' 	c #9A9A9A",
") 	c #B4B4B4",
"! 	c #E0E0E0",
"~ 	c #A5A5A5",
"{ 	c #959595",
"] 	c #969696",
"^ 	c #828282",
"/ 	c #727272",
"( 	c #858585",
"_ 	c #929292",
": 	c #A8A8A8",
"< 	c #F8F8F8",
"[ 	c #BEBEBE",
"} 	c #8F8F8F",
"| 	c #989898",
"1 	c #8A8A8A",
"2 	c #898989",
"3 	c #838383",
"4 	c #A3A3A3",
"5 	c #909090",
"6 	c #C7C7C7",
"7 	c #FAFAFA",
"8 	c #E2E2E2",
"9 	c #A1A1A1",
"0 	c #8C8C8C",
"a 	c #9D9D9D",
"b 	c #9F9F9F",
"c 	c #9C9C9C",
"d 	c #A0A0A0",
"e 	c #8B8B8B",
"f 	c #A6A6A6",
"g 	c #E6E6E6",
"h 	c #9B9B9B",
"i 	c #D0D043",
"j 	c #AAAAAA",
"k 	c #ECECEC",
"l 	c #A7A7A7",
"m 	c #AEAE92",
"n 	c #FFFF00",
"o 	c #AEAE94",
"p 	c #ACACAC",
"q 	c #F3F3F3",
"r 	c #F5F5F5",
"s 	c #ABABAB",
"t 	c #CCCC5B",
"u 	c #9E9E9E",
"v 	c #F9F9F9",
"w 	c #B7B7B7",
"x 	c #000000",
"y 	c #BFBFBF",
"z 	c #8D8D8D",
"A 	c #A3A5A4",
"B 	c #959796",
"C 	c #99A99F",
"D 	c #C9CCC8",
"E 	c #DDDDDD",
"F 	c #CBCBCB",
"G 	c #A4A49E",
"H 	c #F2F2F2",
"I 	c #A9A9A9",
"J 	c #78A88B",
"K 	c #2B824E",
"L 	c #769683",
"M 	c #FFFFFF",
"N 	c #B8B8B8",
"O 	c #C3C36E",
"P 	c #BDC36A",
"Q 	c #7BB53D",
"R 	c #71B638",
"S 	c #8FA77E",
"T 	c #99A181",
"U 	c #BFBF6A",
"V 	c #F4F4F4",
"W 	c #C1C36C",
"X 	c #E7E724",
"Y 	c #B2B273",
"Z 	c #FCFC04",
"` 	c #D2D2D2",
" .	c #B1B1B1",
"..	c #919191",
"+.	c #6FA986",
"@.	c #4DA346",
"#.	c #E6F50C",
"$.	c #666666",
"%.	c #F4F414",
"&.	c #B3B38B",
"*.	c #939393",
"=.	c #FBFBFB",
"-.	c #419060",
";.	c #2B9254",
">.	c #3EB062",
",.	c #B6E124",
"'.	c #CCD827",
").	c #F1F1F1",
"!.	c #488C63",
"~.	c #37AE66",
"{.	c #79C944",
"].	c #6F6D6F",
"^.	c #272927",
"/.	c #D2D12D",
"(.	c #DBD926",
"_.	c #79B255",
":.	c #5C896E",
"<.	c #8E8E8E",
"[.	c #999799",
"}.	c #8E908E",
"|.	c #9B999B",
"1.	c #8F918F",
"2.	c #EFEFEF",
"3.	c #E9E9E9",
"4.	c #349159",
"5.	c #99D633",
"6.	c #4B4F4B",
"7.	c #100F10",
"8.	c #7A767A",
"9.	c #E1E1E1",
"0.	c #E3E3E3",
"a.	c #518F69",
"b.	c #309156",
"c.	c #D2EC16",
"d.	c #F9F905",
"e.	c #817E44",
"f.	c #151415",
"g.	c #6B686B",
"h.	c #DAD9DA",
"i.	c #5A866B",
"j.	c #37915A",
"k.	c #58AB79",
"l.	c #50AE6E",
"m.	c #F7F707",
"n.	c #353235",
"o.	c #A09FA0",
"p.	c #6B8D78",
"q.	c #9CB350",
"r.	c #CFE612",
"s.	c #938F4D",
"t.	c #0B0A0B",
"u.	c #5D5A5D",
"v.	c #979897",
"w.	c #FEFDFE",
"x.	c #E1E137",
"y.	c #99C234",
"z.	c #9FD830",
"A.	c #798653",
"B.	c #0F100F",
"C.	c #050505",
"D.	c #191A19",
"E.	c #6C6A6C",
"F.	c #797C79",
"G.	c #9D9C9D",
"H.	c #F5F512",
"I.	c #B9B980",
"J.	c #658D75",
"K.	c #2C9154",
"L.	c #63C04F",
"M.	c #E9F60B",
"N.	c #F8F905",
"O.	c #546C5C",
"P.	c #141514",
"Q.	c #464446",
"R.	c #575757",
"S.	c #313431",
"T.	c #201E20",
"U.	c #4F4B4F",
"V.	c #A09DA0",
"W.	c #BBBB7B",
"X.	c #329158",
"Y.	c #3EB162",
"Z.	c #AADC2B",
"`.	c #79B95D",
" +	c #59655C",
".+	c #9D9E9D",
"++	c #4B4D4B",
"@+	c #302D30",
"#+	c #777277",
"$+	c #A5A4A5",
"%+	c #469063",
"&+	c #51AB75",
"*+	c #6B8C78",
"=+	c #757175",
"-+	c #979997",
";+	c #A1A2A1",
">+	c #878587",
",+	c #676867",
"'+	c #D3D3D3",
")+	c #C0C0C0",
"!+	c #319157",
"~+	c #38AD66",
"{+	c #508F69",
"]+	c #678975",
"^+	c #C8C8C8",
"/+	c #8F9893",
"(+	c #319057",
"_+	c #69A17F",
":+	c #638570",
"<+	c #BDBDBD",
"[+	c #3CAD69",
"}+	c #4E8F67",
"|+	c #39AD67",
"1+	c #5F8D72",
"2+	c #8BA796",
"3+	c #2B9154",
"4+	c #3AAD68",
"5+	c #588E6E",
"6+	c #DFDFDF",
"7+	c #3F8D5E",
"8+	c #5BAB7A",
"9+	c #618D73",
"0+	c #E8E8E8",
"a+	c #AFAFAF",
"b+	c #908F90",
"c+	c #949494",
"d+	c #B5B5B5",
"e+	c #FCFCFC",
"f+	c #D1D1D1",
"g+	c #BABABA",
"h+	c #C1C1C1",
"i+	c #F0F0F0",
"j+	c #C1C0C1",
"                            . + @ # @ $ %                             ",
"                      & * = - ; > ; , ; ' ) * $                       ",
"                  ! ~ { ; ; ; ] ^ / ( ; ; ; ; _ : @                   ",
"              < [ } > | ; ; _ 1 2 3 1 2 { ; ; ' 4 5 6 7               ",
"            8 ~ 9 0 ; > , ; a a b ; c d - | ~ , ; e > f $             ",
"          g : ' ' ; ~ h ' ~ d c ~ i ~ ; ~ > ; b ~ ; | c j k           ",
"        $ l ; , ~ ' { 9 ~ ~ ; ~ m n o ~ ; ~ ~ a { a ~ d ; p q         ",
"      r s - ~ ~ ~ ] h ; > | > ~ t n t ~ u u 9 ; h ' ~ ~ ~ ; = v       ",
"      w ' ~ ~ ~ | > ~ ~ ; e x x x x x x x 1 h ~ ~ 9 h ~ ~ ~ | y       ",
"    & z ~ ~ ~ - 4 ~ A ~ B x C D E E F G , x a ~ ~ ~ d c ~ ~ ~ 0 H     ",
"    I u ~ ~ c d ~ ~ J K x L E E M E E E - c x ~ ~ ~ ~ c d ~ ~ ] N     ",
"  & ' ; ~ 4 - ~ O P Q R x S d F E E F d - T x U O O O ~ ; ~ ~ ; | V   ",
"  6 ~ ; ~ ; ~ ~ W n n n n x X Y - - - Y X x n n n Z O ~ 4 - b a 4 `   ",
"   .~ ~ ..c ~ ~ +.@.#.n n n x x x E $.x x n n n %.&.~ ~ ~ *.' ~ ~ w   ",
"=.9 ~ ~ ; | a ~ -.;.>.,.n n n n x E $.x n n n '.- ~ ~ ~ - c | ~ ~ d   ",
").~ ~ , ' ~ b ; !.~.~.~.{.n n n x E ].^./.(._.:.<.[.}.<.] |.1.~ ~ > 2.",
"3.~ ~ ; ~ ~ ~ ~ 4.~.~.~.~.5.n n n x 6.7.x x x x x x x x 7.8.9 h ~ ~ 9.",
"0.~ ~ ; ~ ~ ~ ~ a.b.~.~.~.c.n n n n d.e.f.x x x x x x f.g.4 ~ ; ~ ~ h.",
"& ~ ~ ; ~ ~ ~ ~ ~ i.j.k.l.n n n n n n m.e.7.x x x x x n.o.~ ~ ; ~ , + ",
"r | , ' ~ ~ ~ ~ ~ ; p.p.q.n n n r.{.c.n d.s.x x x x x t.u.v.~ ; ~ | w.",
"  b - b ~ ~ ~ ~ ~ ; ~ ~ x.n n y.;.~.~.z.n n A.B.x x C.D.t.x E.F.G.:   ",
"  N <.9 ~ ~ ~ ~ ~ ; ~ ~ n H.I.J.K.~.~.~.L.M.N.O.P.x Q.h R.S.x T.U.V.  ",
"  ` a { - ~ ~ ~ ~ ; ~ W.x.~ ~ ~ X.~.~.~.~.Y.Z.`. +B.; ~ 9 .+++@+x #+  ",
"  ).~ ; 4 ; | > $+| ~ ~ ~ ~ ~ ~ %+~.~.~.~.~.~.&+*+=+-+, ; | ;+>+,+'+  ",
"    )+; ~ ~ > | <.*., ~ ~ ~ ~ ~ !+~.~.~.~.~.~+{+]+1 1.' ~ ~ ~ ; ^+    ",
"    2.| ~ ~ ~ ~ 4 - ' ; ; ; ; /+(+~.~.~.~.~._+:+a ; ~ ~ ~ ~ ~ h r     ",
"      <+, ~ ~ ~ ~ ; ~ ~ ~ ~ ~ ~ %+~.~.~.~.[+J.p.~ ; ~ ~ ~ ~ d ^+      ",
"      . - ~ ~ ~ ~ ; ~ ~ ~ ~ ~ ~ }+;.~.~.|+1+p.~ ~ ; ~ ~ ~ ~ c =.      ",
"        + a ~ ~ ~ ; ~ ~ ~ ~ ~ ~ 2+3+~.4+5+p.~ ~ ~ ; ~ ~ ~ d q         ",
"          6+c c ~ ; ~ ~ ~ ~ ~ ~ ~ 7+8+9+p.~ ~ ~ ~ ; ~ h b 0+          ",
"            2.a+; b+c ~ ~ ~ ~ ~ ~ :+p.p.~ ~ ~ ~ c+{ ; d+q             ",
"              e+F f } ; ; ; ; ; ' _ | ; ; ; ; ; 5 f f+                ",
"                  k g+u ~ ~ ~ ~ , 5 > ~ ~ ~ ~ b h+i+                  ",
"                      . ` j+s ~ ~ h ~ ~ s h+'+<                       ",
"                              . + @ + %                               "};
