/* XPM */
static const char * select_pin_35_xpm[] = {
"35 35 208 2",
"  	c None",
". 	c #F6F6F6",
"+ 	c #EDEDED",
"@ 	c #E5E5E5",
"# 	c #DEDEDE",
"$ 	c #EEEEEE",
"% 	c #F7F7F7",
"& 	c #EAEAEA",
"* 	c #CFCFCF",
"= 	c #B0B0B0",
"- 	c #999999",
"; 	c #979797",
"> 	c #A4A4A4",
", 	c #A2A2A2",
"' 	c #9A9A9A",
") 	c #B4B4B4",
"! 	c #E0E0E0",
"~ 	c #A5A5A5",
"{ 	c #959595",
"] 	c #969696",
"^ 	c #828282",
"/ 	c #727272",
"( 	c #858585",
"_ 	c #929292",
": 	c #A8A8A8",
"< 	c #F8F8F8",
"[ 	c #BEBEBE",
"} 	c #8F8F8F",
"| 	c #989898",
"1 	c #8A8A8A",
"2 	c #898989",
"3 	c #838383",
"4 	c #A3A3A3",
"5 	c #909090",
"6 	c #C7C7C7",
"7 	c #FAFAFA",
"8 	c #E2E2E2",
"9 	c #A1A1A1",
"0 	c #8C8C8C",
"a 	c #9D9D9D",
"b 	c #9F9F9F",
"c 	c #9C9C9C",
"d 	c #A0A0A0",
"e 	c #8B8B8B",
"f 	c #A6A6A6",
"g 	c #E6E6E6",
"h 	c #9B9B9B",
"i 	c #AAAAAA",
"j 	c #ECECEC",
"k 	c #A7A7A7",
"l 	c #ACACAC",
"m 	c #F3F3F3",
"n 	c #F5F5F5",
"o 	c #ABABAB",
"p 	c #9E9E9E",
"q 	c #F9F9F9",
"r 	c #B7B7B7",
"s 	c #FFFF00",
"t 	c #BFBFBF",
"u 	c #8D8D8D",
"v 	c #A3A5A4",
"w 	c #959796",
"x 	c #99A99F",
"y 	c #C8CBC9",
"z 	c #DDDDDD",
"A 	c #CBCBCB",
"B 	c #F2F2F2",
"C 	c #A9A9A9",
"D 	c #78A88B",
"E 	c #2B824E",
"F 	c #769683",
"G 	c #FFFFFF",
"H 	c #919091",
"I 	c #919391",
"J 	c #D2D12D",
"K 	c #9B999B",
"L 	c #979997",
"M 	c #939293",
"N 	c #949594",
"O 	c #908E90",
"P 	c #A8AAA8",
"Q 	c #9CA5A0",
"R 	c #39905C",
"S 	c #2B9254",
"T 	c #7A9F89",
"U 	c #707470",
"V 	c #100F10",
"W 	c #000000",
"X 	c #777277",
"Y 	c #F4F4F4",
"Z 	c #A2A5A3",
"` 	c #3D905F",
" .	c #37AE66",
"..	c #4EA972",
"+.	c #809E8C",
"@.	c #50A772",
"#.	c #817E44",
"$.	c #151415",
"%.	c #6A676A",
"&.	c #D2D2D2",
"*.	c #B1B1B1",
"=.	c #919191",
"-.	c #6FA986",
";.	c #666666",
">.	c #3BAA67",
",.	c #5A635F",
"'.	c #353235",
").	c #969596",
"!.	c #FBFBFB",
"~.	c #419060",
"{.	c #3A905B",
"].	c #696F6E",
"^.	c #0B0A0B",
"/.	c #5C585C",
"(.	c #979897",
"_.	c #F1F1F1",
":.	c #488C63",
"<.	c #498F65",
"[.	c #0F100F",
"}.	c #050505",
"|.	c #191A19",
"1.	c #6C6A6C",
"2.	c #7E817E",
"3.	c #E7E6E7",
"4.	c #E9E9E9",
"5.	c #349159",
"6.	c #468660",
"7.	c #506557",
"8.	c #141514",
"9.	c #464446",
"0.	c #575757",
"a.	c #313431",
"b.	c #201E20",
"c.	c #4F4B4F",
"d.	c #E3E3E3",
"e.	c #518F69",
"f.	c #309156",
"g.	c #49A96E",
"h.	c #59655C",
"i.	c #929392",
"j.	c #4B4D4B",
"k.	c #302D30",
"l.	c #5A866B",
"m.	c #37915A",
"n.	c #58AB79",
"o.	c #4CAC72",
"p.	c #578E6D",
"q.	c #5F8D72",
"r.	c #409060",
"s.	c #5EA47A",
"t.	c #6B8C78",
"u.	c #797579",
"v.	c #A1A2A1",
"w.	c #8E8B8E",
"x.	c #6A6B6A",
"y.	c #6B8D78",
"z.	c #4AAC71",
"A.	c #5F856E",
"B.	c #9A9C9A",
"C.	c #FEFDFE",
"D.	c #439061",
"E.	c #39AD67",
"F.	c #638570",
"G.	c #B8B8B8",
"H.	c #8E8E8E",
"I.	c #658D75",
"J.	c #2C9154",
"K.	c #55AB77",
"L.	c #C1C0C1",
"M.	c #329158",
"N.	c #53AB76",
"O.	c #DBDBDB",
"P.	c #A5A4A5",
"Q.	c #469063",
"R.	c #51AB75",
"S.	c #C0C0C0",
"T.	c #939393",
"U.	c #319157",
"V.	c #38AD66",
"W.	c #508F69",
"X.	c #678975",
"Y.	c #C8C8C8",
"Z.	c #EFEFEF",
"`.	c #8F9893",
" +	c #319057",
".+	c #69A17F",
"++	c #BDBDBD",
"@+	c #3CAD69",
"#+	c #4E8F67",
"$+	c #8BA796",
"%+	c #2B9154",
"&+	c #3AAD68",
"*+	c #588E6E",
"=+	c #DFDFDF",
"-+	c #3F8D5E",
";+	c #5BAB7A",
">+	c #618D73",
",+	c #E8E8E8",
"'+	c #AFAFAF",
")+	c #908F90",
"!+	c #949494",
"~+	c #B5B5B5",
"{+	c #FCFCFC",
"]+	c #D1D1D1",
"^+	c #BABABA",
"/+	c #C1C1C1",
"(+	c #F0F0F0",
"_+	c #D3D3D3",
"                            . + @ # @ $ %                             ",
"                      & * = - ; > ; , ; ' ) * $                       ",
"                  ! ~ { ; ; ; ] ^ / ( ; ; ; ; _ : @                   ",
"              < [ } > | ; ; _ 1 2 3 1 2 { ; ; ' 4 5 6 7               ",
"            8 ~ 9 0 ; > , ; a a b ; c d - | ~ , ; e > f $             ",
"          g : ' ' ; ~ h ' ~ d c ~ ; ~ ; ~ > ; b ~ ; | c i j           ",
"        $ k ; , ~ ' { 9 ~ ~ ; ~ ~ ; ~ ~ ; ~ ~ a { a ~ d ; l m         ",
"      n o - ~ ~ ~ ] h ; > | > ~ ~ ; ~ ~ p p 9 ; h ' ~ ~ ~ ; = q       ",
"      r ' ~ ~ ~ | > ~ ~ ; e s s s s s s s 1 h ~ ~ 9 h ~ ~ ~ | t       ",
"    & u ~ ~ ~ - 4 ~ v ~ w s x y z z A , , s a ~ ~ ~ d c ~ ~ ~ 0 B     ",
"    C p ~ ~ c d ~ ~ D E s F z z G z z z H I J K L ; ; M N ; ; O P     ",
"  & ' ; ~ 4 - ~ ~ Q R S s T d A z z A d U V W W W W W W W W V X | Y   ",
"  6 ~ ; ~ ; ~ ~ Z ` S  . .s ..+.- - - +.@.#.$.W W W W W W $.%.h 4 &.  ",
"  *.~ ~ =.c ~ ~ -.S  . . . .s s s z ;.s s >.,.V W W W W W '.).~ ~ r   ",
"!.9 ~ ~ ; | a ~ ~.S  . . . . . .s z ;.s  . .{.].W W W W W ^./.(.~ d   ",
"_.~ ~ , ' ~ b ; :. . . . . . . .s z ;.s  . . .<.U [.W W }.|.^.W 1.2.3.",
"4.~ ~ ; ~ ~ ~ ~ 5. . . . . . . . .s s  . . . .S 6.7.8.W 9.h 0.a.W b.c.",
"d.~ ~ ; ~ ~ ~ ~ e.f. . . . . . . . . . . . . . . .g.h.[.; ~ 9 i.j.k.W ",
"& ~ ~ ; ~ ~ ~ ~ ~ l.m.n.o.p.q.r. . . . . . . . . .s.t.u.L ~ ~ ; v.w.x.",
"n | , ' ~ ~ ~ ~ ~ ; y.y.y.y.~ e.S  . . . . . . .z.A.y.~ B.~ ~ ; ~ | C.",
"  b - b ~ ~ ~ ~ ~ ; ~ ~ ~ ~ ~ D.S  . . . . . .E.q.F.~ ~ ~ ~ ~ ; b C   ",
"  G.H.9 ~ ~ ~ ~ ~ ; ~ ~ ~ ~ ~ I.J. . . . . . .K.y.; ~ ~ ~ ~ ~ | ; L.  ",
"  &.a { - ~ ~ ~ ~ ; ~ ~ ~ ~ ~ ~ M. . . . . . .N.y.; ~ ~ ~ > ; 5 > O.  ",
"  _.~ ; 4 ; | > P.| ~ ~ ~ ~ ~ ~ Q. . . . . . .R.y.; ~ , ; | ~ ; k %   ",
"    S.; ~ ~ > | H.T., ~ ~ ~ ~ ~ U. . . . . .V.W.X.1 ; ' ~ ~ ~ ; Y.    ",
"    Z.| ~ ~ ~ ~ 4 - ' ; ; ; ; `. + . . . . ..+F.a ; ~ ~ ~ ~ ~ h n     ",
"      ++, ~ ~ ~ ~ ; ~ ~ ~ ~ ~ ~ Q. . . . .@+I.y.~ ; ~ ~ ~ ~ d Y.      ",
"      . - ~ ~ ~ ~ ; ~ ~ ~ ~ ~ ~ #+S  . .E.q.y.~ ~ ; ~ ~ ~ ~ c !.      ",
"        + a ~ ~ ~ ; ~ ~ ~ ~ ~ ~ $+%+ .&+*+y.~ ~ ~ ; ~ ~ ~ d m         ",
"          =+c c ~ ; ~ ~ ~ ~ ~ ~ ~ -+;+>+y.~ ~ ~ ~ ; ~ h b ,+          ",
"            Z.'+; )+c ~ ~ ~ ~ ~ ~ F.y.y.~ ~ ~ ~ !+{ ; ~+m             ",
"              {+A f } ; ; ; ; ; ' _ | ; ; ; ; ; 5 f ]+                ",
"                  j ^+p ~ ~ ~ ~ , 5 > ~ ~ ~ ~ b /+(+                  ",
"                      . &.L.o ~ ~ h ~ ~ o /+_+<                       ",
"                              . + @ + %                               "};
