/* XPM */
static const char * select_plate_35_xpm[] = {
"35 35 201 2",
"  	c None",
". 	c #F6F6F6",
"+ 	c #EDEDED",
"@ 	c #E5E5E5",
"# 	c #DEDEDE",
"$ 	c #EEEEEE",
"% 	c #F7F7F7",
"& 	c #EAEAEA",
"* 	c #CFCFCF",
"= 	c #B0B0B0",
"- 	c #999999",
"; 	c #979797",
"> 	c #A4A4A4",
", 	c #A2A2A2",
"' 	c #9A9A9A",
") 	c #B4B4B4",
"! 	c #E0E0E0",
"~ 	c #A5A5A5",
"{ 	c #959595",
"] 	c #969696",
"^ 	c #828282",
"/ 	c #727272",
"( 	c #858585",
"_ 	c #929292",
": 	c #A8A8A8",
"< 	c #F8F8F8",
"[ 	c #BEBEBE",
"} 	c #8F8F8F",
"| 	c #989898",
"1 	c #8A8A8A",
"2 	c #898989",
"3 	c #838383",
"4 	c #A3A3A3",
"5 	c #909090",
"6 	c #C7C7C7",
"7 	c #FAFAFA",
"8 	c #E2E2E2",
"9 	c #A1A1A1",
"0 	c #8C8C8C",
"a 	c #9D9D9D",
"b 	c #9F9F9F",
"c 	c #9C9C9C",
"d 	c #A0A0A0",
"e 	c #8B8B8B",
"f 	c #A6A6A6",
"g 	c #E6E6E6",
"h 	c #9B9B9B",
"i 	c #AAAAAA",
"j 	c #ECECEC",
"k 	c #A7A7A7",
"l 	c #ACACAC",
"m 	c #F3F3F3",
"n 	c #F5F5F5",
"o 	c #ABABAB",
"p 	c #9E9E9E",
"q 	c #F9F9F9",
"r 	c #B7B7B7",
"s 	c #FFFF00",
"t 	c #BFBFBF",
"u 	c #8D8D8D",
"v 	c #9AA59E",
"w 	c #8FA698",
"x 	c #7AA88C",
"y 	c #7DA68D",
"z 	c #6E987F",
"A 	c #F2F2F2",
"B 	c #A9A9A9",
"C 	c #78A88B",
"D 	c #2B824E",
"E 	c #2E9155",
"F 	c #2B9254",
"G 	c #38915B",
"H 	c #469063",
"I 	c #4F8F68",
"J 	c #B8B8B8",
"K 	c #9CA5A0",
"L 	c #39905C",
"M 	c #37AE66",
"N 	c #2E9156",
"O 	c #678D76",
"P 	c #F4F4F4",
"Q 	c #3D905F",
"R 	c #459063",
"S 	c #6B8D78",
"T 	c #D2D2D2",
"U 	c #B1B1B1",
"V 	c #919191",
"W 	c #6FA986",
"X 	c #37AD66",
"Y 	c #5B8E6F",
"Z 	c #939393",
"` 	c #FBFBFB",
" .	c #419060",
"..	c #37915A",
"+.	c #678C76",
"@.	c #F1F1F1",
"#.	c #488C63",
"$.	c #498F65",
"%.	c #A3A4A3",
"&.	c #EFEFEF",
"*.	c #E9E9E9",
"=.	c #349159",
"-.	c #44875F",
";.	c #468C61",
">.	c #6A8C78",
",.	c #E1E1E1",
"'.	c #E3E3E3",
").	c #518F69",
"!.	c #309156",
"~.	c #46AC6E",
"{.	c #DAD9DA",
"].	c #5A866B",
"^.	c #58AB79",
"/.	c #4CAC72",
"(.	c #578E6D",
"_.	c #5F8D72",
":.	c #409060",
"<.	c #5EA47A",
"[.	c #4AAC71",
"}.	c #5F856E",
"|.	c #FEFDFE",
"1.	c #439061",
"2.	c #39AD67",
"3.	c #638570",
"4.	c #8E8E8E",
"5.	c #658D75",
"6.	c #2C9154",
"7.	c #4F9E6F",
"8.	c #4C9F6C",
"9.	c #649B7A",
"0.	c #72887B",
"a.	c #D4D627",
"b.	c #999899",
"c.	c #979897",
"d.	c #918F91",
"e.	c #AFB0AF",
"f.	c #329158",
"g.	c #597964",
"h.	c #100F10",
"i.	c #000000",
"j.	c #7A767A",
"k.	c #DBDBDB",
"l.	c #A5A4A5",
"m.	c #3AAB67",
"n.	c #516B5C",
"o.	c #151415",
"p.	c #686568",
"q.	c #C0C0C0",
"r.	c #319157",
"s.	c #3CAA67",
"t.	c #57635D",
"u.	c #353235",
"v.	c #949394",
"w.	c #C8C8C8",
"x.	c #8F9893",
"y.	c #319057",
"z.	c #69A17F",
"A.	c #648470",
"B.	c #938F4D",
"C.	c #0B0A0B",
"D.	c #5C595C",
"E.	c #CCCDCC",
"F.	c #BDBDBD",
"G.	c #3CAD69",
"H.	c #707470",
"I.	c #0F100F",
"J.	c #050505",
"K.	c #191A19",
"L.	c #666A66",
"M.	c #4E8F67",
"N.	c #959695",
"O.	c #676B67",
"P.	c #141514",
"Q.	c #464446",
"R.	c #949494",
"S.	c #656565",
"T.	c #313431",
"U.	c #201E20",
"V.	c #8BA796",
"W.	c #2B9154",
"X.	c #3AAD68",
"Y.	c #588E6E",
"Z.	c #4B4D4B",
"`.	c #302D30",
" +	c #DFDFDF",
".+	c #3F8D5E",
"++	c #5BAB7A",
"@+	c #618D73",
"#+	c #777477",
"$+	c #C4C7C4",
"%+	c #AFAFAF",
"&+	c #908F90",
"*+	c #B5B5B5",
"=+	c #FCFCFC",
"-+	c #CBCBCB",
";+	c #D1D1D1",
">+	c #BABABA",
",+	c #C1C1C1",
"'+	c #F0F0F0",
")+	c #C1C0C1",
"!+	c #D3D3D3",
"                            . + @ # @ $ %                             ",
"                      & * = - ; > ; , ; ' ) * $                       ",
"                  ! ~ { ; ; ; ] ^ / ( ; ; ; ; _ : @                   ",
"              < [ } > | ; ; _ 1 2 3 1 2 { ; ; ' 4 5 6 7               ",
"            8 ~ 9 0 ; > , ; a a b ; c d - | ~ , ; e > f $             ",
"          g : ' ' ; ~ h ' ~ d c ~ ; ~ ; ~ > ; b ~ ; | c i j           ",
"        $ k ; , ~ ' { 9 ~ ~ ; ~ ~ ; ~ ~ ; ~ ~ a { a ~ d ; l m         ",
"      n o - ~ ~ ~ ] h ; > | > ~ ~ ; ~ ~ p p 9 ; h ' ~ ~ ~ ; = q       ",
"      r ' ~ ~ ~ | > ~ ~ ; s s s s s - ; ; 1 h ~ ~ 9 h ~ ~ ~ | t       ",
"    & u ~ ~ ~ - 4 ~ s s s v w x y z s s s b a ~ ~ ~ d c ~ ~ ~ 0 A     ",
"    B p ~ ~ c d ~ s C D E F F F F F G H I s ; ~ ~ ~ ~ c d ~ ~ ] J     ",
"  & ' ; ~ 4 - ~ s K L F M M M M M M M M N O s b ~ ~ ~ ~ ; ~ ~ ; | P   ",
"  6 ~ ; ~ ; ~ ~ s Q F M M M M M M M M M M R S s ~ ~ ~ ~ 4 - b a 4 T   ",
"  U ~ ~ V c ~ s W F M M M M M M M M M M M X Y s ~ ~ ~ ~ ~ Z ' ~ ~ r   ",
"` 9 ~ ~ ; | a s  .F M M M M M M M M M M M M ..+.s ~ ~ ~ - c | ~ ~ d   ",
"@.~ ~ , ' ~ b s #.M M M M M M M M M M M M M M $.s s s ; %.~ ; ~ ~ > &.",
"*.~ ~ ; ~ ~ ~ s =.M M M M M M M M M M M M M M F -.;.>.s ~ ~ 9 h ~ ~ ,.",
"'.~ ~ ; ~ ~ ~ s ).!.M M M M M M M M M M M M M M M ~.S s ~ ~ ~ ; ~ ~ {.",
"& ~ ~ ; ~ ~ ~ ~ s ]...^./.(._.:.M M M M M M M M M <.S s ~ ~ ~ ; ~ , + ",
"n | , ' ~ ~ ~ ~ ~ s S S S S s ).F M M M M M M M [.}.S s ~ ~ ~ ; ~ | |.",
"  b - b ~ ~ ~ ~ ~ ; s s s s s 1.F M M M M M M 2._.3.s ~ ~ ~ ~ ; b B   ",
"  J 4.9 ~ ~ ~ ~ ~ ; ~ ~ ~ ~ s 5.6.M M M M 7.8.9.0.a.; ; b.c.; } d.e.  ",
"  T a { - ~ ~ ~ ~ ; ~ ~ ~ ~ s ~ f.M M M M g.h.i.i.i.i.i.i.i.i.h.j.k.  ",
"  @.~ ; 4 ; | > l.| ~ ~ ~ ~ s ~ H M M M M m.n.o.i.i.i.i.i.i.o.p.~ %   ",
"    q.; ~ ~ > | 4.Z , ~ ~ ~ s ~ r.M M M M M s.t.h.i.i.i.i.i.u.v.w.    ",
"    &.| ~ ~ ~ ~ 4 - ' ; ; ; s x.y.M M M M M z.A.B.i.i.i.i.i.C.D.E.    ",
"      F., ~ ~ ~ ~ ; ~ ~ ~ ~ ~ s H M M M M G.5.S s H.I.i.i.J.K.C.i.p.L.",
"      . - ~ ~ ~ ~ ; ~ ~ ~ ~ ~ s M.F M M 2._.S s ~ N.O.P.i.Q.R.S.T.i.U.",
"        + a ~ ~ ~ ; ~ ~ ~ ~ ~ s V.W.M X.Y.S s ~ ~ ; , O.I.R.m     Z.`.",
"           +c c ~ ; ~ ~ ~ ~ ~ ~ s .+++@+S s ~ ~ ~ ; ~ - #+$+          ",
"            &.%+; &+c ~ ~ ~ ~ ~ s 3.S S s ~ ~ ~ R.{ ; *+m             ",
"              =+-+f } ; ; ; ; ; ' s s s ; ; ; ; 5 f ;+                ",
"                  j >+p ~ ~ ~ ~ , 5 > ~ ~ ~ ~ b ,+'+                  ",
"                      . T )+o ~ ~ h ~ ~ o ,+!+<                       ",
"                              . + @ + %                               "};
