/* XPM */
static const char * spin_globe_35_xpm[] = {
"35 35 162 2",
"  	c None",
". 	c #F6F6F6",
"+ 	c #6A6ADD",
"@ 	c #DEDEDE",
"# 	c #E5E5E5",
"$ 	c #EEEEEE",
"% 	c #F7F7F7",
"& 	c #EAEAEA",
"* 	c #CFCFCF",
"= 	c #B0B0B0",
"- 	c #9A9A9A",
"; 	c #B4B4B4",
"> 	c #E0E0E0",
", 	c #A5A5A5",
"' 	c #959595",
") 	c #979797",
"! 	c #929292",
"~ 	c #A8A8A8",
"{ 	c #F8F8F8",
"] 	c #BEBEBE",
"^ 	c #8F8F8F",
"/ 	c #A4A4A4",
"( 	c #989898",
"_ 	c #8A8A8A",
": 	c #898989",
"< 	c #838383",
"[ 	c #A3A3A3",
"} 	c #909090",
"| 	c #C7C7C7",
"1 	c #FAFAFA",
"2 	c #E2E2E2",
"3 	c #A1A1A1",
"4 	c #8C8C8C",
"5 	c #A2A2A2",
"6 	c #9D9D9D",
"7 	c #9F9F9F",
"8 	c #9C9C9C",
"9 	c #A0A0A0",
"0 	c #999999",
"a 	c #A6A6A6",
"b 	c #E6E6E6",
"c 	c #9B9B9B",
"d 	c #AAAAAA",
"e 	c #ECECEC",
"f 	c #A7A7A7",
"g 	c #ACACAC",
"h 	c #F3F3F3",
"i 	c #F5F5F5",
"j 	c #ABABAB",
"k 	c #969696",
"l 	c #9E9E9E",
"m 	c #F9F9F9",
"n 	c #B7B7B7",
"o 	c #91322F",
"p 	c #8B8B8B",
"q 	c #7F6160",
"r 	c #BFBFBF",
"s 	c #8D8D8D",
"t 	c #9B5856",
"u 	c #9E5C5B",
"v 	c #9C5B59",
"w 	c #9C5A58",
"x 	c #F2F2F2",
"y 	c #A9A9A9",
"z 	c #9B615F",
"A 	c #9E5C5A",
"B 	c #9B5957",
"C 	c #FF5753",
"D 	c #B8B8B8",
"E 	c #9C5E5D",
"F 	c #9A6362",
"G 	c #785A59",
"H 	c #F4F4F4",
"I 	c #795B5A",
"J 	c #D2D2D2",
"K 	c #B1B1B1",
"L 	c #919191",
"M 	c #7C5D5C",
"N 	c #9A5756",
"O 	c #795C5B",
"P 	c #FBFBFB",
"Q 	c #7E605F",
"R 	c #F1F1F1",
"S 	c #785B59",
"T 	c #EFEFEF",
"U 	c #E9E9E9",
"V 	c #7E605E",
"W 	c #7A5C5B",
"X 	c #E3E3E3",
"Y 	c #EDEDED",
"Z 	c #955E5C",
"` 	c #935F5E",
" .	c #FEFDFE",
"..	c #9C5D5C",
"+.	c #965C5B",
"@.	c #C1C0C1",
"#.	c #908E90",
"$.	c #979997",
"%.	c #9B999B",
"&.	c #936867",
"*.	c #D16562",
"=.	c #D66362",
"-.	c #D36561",
";.	c #7F6B6B",
">.	c #80696A",
",.	c #999B99",
"'.	c #DBDBDB",
").	c #A5A4A5",
"!.	c #707470",
"~.	c #100F10",
"{.	c #000000",
"].	c #777277",
"^.	c #C0C0C0",
"/.	c #8E8E8E",
"(.	c #939393",
"_.	c #969596",
":.	c #6B686B",
"<.	c #151415",
"[.	c #696669",
"}.	c #C8C8C8",
"|.	c #686568",
"1.	c #353235",
"2.	c #A09FA0",
"3.	c #BDBDBD",
"4.	c #7A767A",
"5.	c #0B0A0B",
"6.	c #5D5A5D",
"7.	c #7071BC",
"8.	c #737773",
"9.	c #0F100F",
"0.	c #050505",
"a.	c #191A19",
"b.	c #6C6A6C",
"c.	c #7B7E7B",
"d.	c #676B67",
"e.	c #141514",
"f.	c #444344",
"g.	c #6F6FC4",
"h.	c #4E4E60",
"i.	c #313431",
"j.	c #201E20",
"k.	c #4F4B4F",
"l.	c #DFDFDF",
"m.	c #7171BB",
"n.	c #979897",
"o.	c #999A99",
"p.	c #4B4D4B",
"q.	c #302D30",
"r.	c #6A646A",
"s.	c #AFAFAF",
"t.	c #747174",
"u.	c #8C8E8C",
"v.	c #B5B5B5",
"w.	c #656665",
"x.	c #FCFCFC",
"y.	c #CBCBCB",
"z.	c #9B9C9B",
"A.	c #D1D1D1",
"B.	c #BABABA",
"C.	c #C1C1C1",
"D.	c #F0F0F0",
"E.	c #D3D3D3",
"                            . + + @ # $ %                             ",
"                      & * = + + + + + + - ; * $                       ",
"                  > , ' ) + + + + + + + + + ) ! ~ #                   ",
"              { ] ^ / ( + + + _ : < _ : + + + + [ } | 1               ",
"            2 , 3 4 ) / 5 ) 6 6 7 ) 8 9 0 ( , + + + / a $             ",
"          b ~ - + + , c - , 9 8 , ) , ) , / ) 7 , + + 8 d e           ",
"        $ f ) + + - ' 3 , , ) , , ) , , ) , , 6 ' 6 + + ) g h         ",
"      i j 0 + + , k c ) / ( / , , ) , , l l 3 ) c - , + + ) = m       ",
"      n - + + , ( / , , o p ) ) - ' 0 ) ) _ o q , 3 c , + + ( r       ",
"    & s + + , 0 [ , , , t u q , 5 s [ , , v w q , , 9 8 , + , 4 x     ",
"    y l + , 8 9 , u z A B C u q , ) , , u u C u z u q 8 9 , , k D     ",
"  & - + + [ 0 u E F C C C C C u q ) , u u C C C C C u u G , , ) ( H   ",
"  | , + , ) u u C C C C C C C q q ) , q z C C C C C C C A I 7 + [ J   ",
"  K + + L w u C C C C M u C q q , ) , , q u C G u C C C C N O + + n   ",
"P 3 + + t B C C C q G q u q q , , o , , , q u Q I q u C C C B q + +   ",
"R + + 5 B C C C O q ) , q q , , , o , , , , q q ) / S t C C C q + + T ",
"U + + ) u C C C V ' 4 ) - / , , , o , , , 5 ( ) _ ( / u C C C W + + + ",
"X + + ) z C C C q ( / , 5 ( o o o o o o o - / , 0 [ , u C C C G + + + ",
"+ + + ) u C C C u G , , , , , , , o , , , , , , / ( u E C C C G + + Y ",
"+ + + - q u C C C Z q , , , , , , o , , , , , , , ` z C C C q G + +  .",
"  + + + , q u C C C z q , , , , , o , , , , , , ..+.C C C q q + + y   ",
"  D + + , , q u C C C u u q , , , ) , , , , u u u C C C q q , + + @.  ",
"  J 6 + 0 , , q q +.C C C q , , , #.$.) %.$.&.*.=.-.;.;.>.,.) + / '.  ",
"  R , ) [ ) ( / ).S q q q q , , , !.~.{.{.{.{.{.{.{.{.~.].( + + f %   ",
"    ^.) , , / ( /.(.5 , , , , , , _.:.<.{.{.{.{.{.{.<.[.[ , + ) }.    ",
"    T ( , + , , [ 0 - ) ) ) ) ) ) _ ' |.~.{.{.{.{.{.1.2., + + c i     ",
"      3.5 + + , , ) , , , , , , , ) , [ 4.{.{.{.{.{.5.6.7.+ 9 }.      ",
"      . 0 , + + , ) , , , , , , , ) , , , 8.9.{.{.0.a.5.{.b.c.x       ",
"        Y 6 , + + ) , , , , , , , ) , , , [ d.e.{.f.g.h.i.{.j.k.      ",
"          l.8 8 + + , , , , , , , ) , , , , 5 d.9.m.+ n.o.p.q.{.r.    ",
"            T s.) + + + , , , , , ) , , , , , [ t.u.) v.h     w.      ",
"              x.y.a ^ + + + + ) - ! ( ) + + + ) } z.A.                ",
"                  e B.l , + + + + + + + + + , 7 C.D.                  ",
"                      . J @.j + + + + + + C.E.{                       ",
"                              . Y # + +                               "};
