/* XPM */
static const char * zoom_initial_24_xpm[] = {
"24 24 135 2",
"  	c None",
". 	c #343434",
"+ 	c #2D2D2D",
"@ 	c #292929",
"# 	c #262626",
"$ 	c #2E2E2E",
"% 	c #303030",
"& 	c #737373",
"* 	c #A1A1A1",
"= 	c #B4B4B4",
"- 	c #B2B2B2",
"; 	c #9D9D9D",
"> 	c #676767",
", 	c #202020",
"' 	c #1C1C1C",
") 	c #272727",
"! 	c #616161",
"~ 	c #CACACA",
"{ 	c #CFCFCF",
"] 	c #D0D0D0",
"^ 	c #CECECE",
"/ 	c #C9C9C9",
"( 	c #C1C1C1",
"_ 	c #A7A7A7",
": 	c #4C4C4C",
"< 	c #131313",
"[ 	c #222222",
"} 	c #757575",
"| 	c #D3D3D3",
"1 	c #DBDBDB",
"2 	c #E7E7E7",
"3 	c #EFEFEF",
"4 	c #F3F3F3",
"5 	c #F1F1F1",
"6 	c #E5E5E5",
"7 	c #D2D2D2",
"8 	c #BCBCBC",
"9 	c #5E5E5E",
"0 	c #101010",
"a 	c #212121",
"b 	c #5B5B5B",
"c 	c #CCCCCC",
"d 	c #D7D7D7",
"e 	c #F5F5F5",
"f 	c #FAFAFA",
"g 	c #FBFBFB",
"h 	c #F8F8F8",
"i 	c #F0F0F0",
"j 	c #E1E1E1",
"k 	c #C2C2C2",
"l 	c #434343",
"m 	c #0F0F0F",
"n 	c #1F1F1F",
"o 	c #B9B9B9",
"p 	c #D6D6D6",
"q 	c #F9F9F9",
"r 	c #FDFDFD",
"s 	c #4A4A4A",
"t 	c #F2F2F2",
"u 	c #ECECEC",
"v 	c #E4E4E4",
"w 	c #ABABAB",
"x 	c #0E0E0E",
"y 	c #1B1B1B",
"z 	c #6D6D6D",
"A 	c #FCFCFC",
"B 	c #494949",
"C 	c #EEEEEE",
"D 	c #E6E6E6",
"E 	c #575757",
"F 	c #090909",
"G 	c #141414",
"H 	c #A8A8A8",
"I 	c #D8D8D8",
"J 	c #F6F6F6",
"K 	c #464646",
"L 	c #F4F4F4",
"M 	c #DCDCDC",
"N 	c #9B9B9B",
"O 	c #060606",
"P 	c #111111",
"Q 	c #C5C5C5",
"R 	c #DFDFDF",
"S 	c #F7F7F7",
"T 	c #EDEDED",
"U 	c #BFBFBF",
"V 	c #C6C6C6",
"W 	c #E3E3E3",
"X 	c #484848",
"Y 	c #EAEAEA",
"Z 	c #E0E0E0",
"` 	c #BABABA",
" .	c #050505",
"..	c #0B0B0B",
"+.	c #A5A5A5",
"@.	c #474747",
"#.	c #D1D1D1",
"$.	c #939393",
"%.	c #020202",
"&.	c #0A0A0A",
"*.	c #5F5F5F",
"=.	c #D9D9D9",
"-.	c #EBEBEB",
";.	c #444444",
">.	c #E9E9E9",
",.	c #D4D4D4",
"'.	c #000000",
").	c #E2E2E2",
"!.	c #414141",
"~.	c #DADADA",
"{.	c #CBCBCB",
"].	c #3B3B3B",
"^.	c #D5D5D5",
"/.	c #C8C8C8",
"(.	c #BDBDBD",
"_.	c #515151",
":.	c #C7C7C7",
"<.	c #CDCDCD",
"[.	c #B8B8B8",
"}.	c #454545",
"|.	c #030303",
"1.	c #313131",
"2.	c #999999",
"3.	c #BBBBBB",
"4.	c #B6B6B6",
"5.	c #909090",
"6.	c #2B2B2B",
"7.	c #010101",
"8.	c #7A7A7A",
"9.	c #9A9A9A",
"0.	c #777777",
"a.	c #3C3C3C",
"b.	c #686868",
"c.	c #797979",
"d.	c #3A3A3A",
"                                                ",
"              . + @ # # #                       ",
"          $ % & * = - ; > , '                   ",
"        ) ! = ~ { ] ^ / ( _ : <                 ",
"      [ } ~ | 1 2 3 4 5 6 7 8 9 0               ",
"    a b c d 6 e f g f h e i j k l m             ",
"    n o p 2 q g r r s g h t u v w x             ",
"  y z 7 j e f g A B s A q e C D 1 E F           ",
"  G H I C J h h K B s q h L C D M N O           ",
"  P Q R 3 e S q g B B g J L T 6 1 U O           ",
"  x V W u t S J q X B h S e Y Z d `  .          ",
"  ..+.j 2 T 5 4 J K @.4 3 u v 1 #.$.%.          ",
"  &.*.=.j D -.C 3 ;.K T >.v 1 ,.~ : '.          ",
"    &.= I M ).6 D !.l W R ~.,.{.* %.            ",
"    O ].c 7 ,.~.1 ~.1 I ^.] /.(.$ '.            ",
"       ._.k :.{.c <.{.{./.k [.}.'.              ",
"        |.1.2.3.(.8 8 8 4.5.6.'.'.'.            ",
"          7.|.!.8.9.9.0.a.'.'.  '.'.'.'.        ",
"              '.'.'.'.'.'.        , , '.'.      ",
"                                  '.b.. '.'.    ",
"                                    '.c.d.'.'.  ",
"                                      '.b.n '.  ",
"                                        '.'.    ",
"                                                "};
