/* XPM */
static const char * mode_observation_24_xpm[] = {
"24 24 215 2",
"  	c None",
". 	c #C7906F",
"+ 	c #C99475",
"@ 	c #CB9978",
"# 	c #DB9269",
"$ 	c #D28A62",
"% 	c #CE8C64",
"& 	c #D4976E",
"* 	c #DDA07B",
"= 	c #E4A883",
"- 	c #E8AD88",
"; 	c #EBB18C",
"> 	c #EEB795",
", 	c #EFBD9E",
"' 	c #F1C5AC",
") 	c #DF9061",
"! 	c #CF7F54",
"~ 	c #C2754F",
"{ 	c #BA7E5C",
"] 	c #BE8666",
"^ 	c #C08868",
"/ 	c #C2977F",
"( 	c #BD8B6E",
"_ 	c #BF8A6D",
": 	c #CB9476",
"< 	c #D9A183",
"[ 	c #E4B095",
"} 	c #E8BFAA",
"| 	c #EBCEBC",
"1 	c #F0A272",
"2 	c #E7945E",
"3 	c #CD906A",
"4 	c #BD9076",
"5 	c #977663",
"6 	c #947E5E",
"7 	c #A2865C",
"8 	c #977856",
"9 	c #9B8773",
"0 	c #91735B",
"a 	c #846450",
"b 	c #8A6857",
"c 	c #9A715E",
"d 	c #B5836D",
"e 	c #D49E89",
"f 	c #E0B3A0",
"g 	c #E6C6B7",
"h 	c #F3A776",
"i 	c #E19E73",
"j 	c #CE9E82",
"k 	c #D8BBA9",
"l 	c #C8B0A1",
"m 	c #948A71",
"n 	c #978C62",
"o 	c #7C6F52",
"p 	c #504C46",
"q 	c #474642",
"r 	c #625341",
"s 	c #836E4B",
"t 	c #7C7058",
"u 	c #8F7766",
"v 	c #A68274",
"w 	c #A67D6D",
"x 	c #BF9281",
"y 	c #D7AB99",
"z 	c #E3C1B3",
"A 	c #E8CFC4",
"B 	c #F7AB7C",
"C 	c #F0986F",
"D 	c #E0AC93",
"E 	c #E1C2B0",
"F 	c #E8CCB5",
"G 	c #C4AE9C",
"H 	c #928A6F",
"I 	c #8E825A",
"J 	c #6A5A41",
"K 	c #3D3F3D",
"L 	c #3C403E",
"M 	c #49443B",
"N 	c #78684C",
"O 	c #7A7B69",
"P 	c #93897A",
"Q 	c #C1A99E",
"R 	c #B48F80",
"S 	c #AA7F6E",
"T 	c #BE907D",
"U 	c #DEB09D",
"V 	c #E6C4B5",
"W 	c #EAD3C7",
"X 	c #F8BF9A",
"Y 	c #F8B08A",
"Z 	c #F7977A",
"` 	c #F0BBA1",
" .	c #ECCDB5",
"..	c #ECD4BC",
"+.	c #CBBAAA",
"@.	c #90896F",
"#.	c #938B63",
"$.	c #827356",
"%.	c #757C78",
"&.	c #9EA7A4",
"*.	c #564D41",
"=.	c #796E53",
"-.	c #767C6F",
";.	c #92887A",
">.	c #C9AFA3",
",.	c #D2AC9A",
"'.	c #CA9C8A",
").	c #BE8F7A",
"!.	c #CFA290",
"~.	c #E4BAA9",
"{.	c #EAD0C1",
"].	c #F6C0A1",
"^.	c #F8A987",
"/.	c #F78C69",
"(.	c #F68E76",
"_.	c #F2A68D",
":.	c #F0CBB6",
"<.	c #F0DBCA",
"[.	c #E1D0C4",
"}.	c #A39786",
"|.	c #8B8B70",
"1.	c #968C66",
"2.	c #978D6C",
"3.	c #B8B7A4",
"4.	c #8D805A",
"5.	c #857E5D",
"6.	c #817B69",
"7.	c #AC9C91",
"8.	c #D5BAAE",
"9.	c #D5A99A",
"0.	c #D99B84",
"a.	c #DFA284",
"b.	c #DDAA94",
"c.	c #E2BCA9",
"d.	c #EACEBE",
"e.	c #F2A990",
"f.	c #F1967C",
"g.	c #E5806A",
"h.	c #E68C73",
"i.	c #E9B9A2",
"j.	c #ECDACE",
"k.	c #E9E0DB",
"l.	c #CCC2BA",
"m.	c #8E8B78",
"n.	c #858672",
"o.	c #8E8A6B",
"p.	c #8F8965",
"q.	c #8A8464",
"r.	c #817963",
"s.	c #A59A8A",
"t.	c #D0C1B9",
"u.	c #DAC0B6",
"v.	c #DCA18C",
"w.	c #E0A287",
"x.	c #E5B195",
"y.	c #EAC2AB",
"z.	c #EBCAB8",
"A.	c #F1A990",
"B.	c #EA977E",
"C.	c #EA9577",
"D.	c #E99F7E",
"E.	c #E4B9A6",
"F.	c #E4D6CE",
"G.	c #E5DFDD",
"H.	c #C4C2BA",
"I.	c #979689",
"J.	c #868373",
"K.	c #84806E",
"L.	c #8D8775",
"M.	c #ACA89E",
"N.	c #D3CCCA",
"O.	c #DCC2BC",
"P.	c #DFAB99",
"Q.	c #E2A893",
"R.	c #E3B6A0",
"S.	c #E8C2AE",
"T.	c #EED0BF",
"U.	c #F4C3AF",
"V.	c #F3BDA5",
"W.	c #F1BAA0",
"X.	c #F0B190",
"Y.	c #E9AE90",
"Z.	c #E5BAAA",
"`.	c #E4CECA",
" +	c #DED0CD",
".+	c #D7CECB",
"++	c #D2C7C4",
"@+	c #DACAC9",
"#+	c #E0C6C6",
"$+	c #E1B5A7",
"%+	c #E5AC98",
"&+	c #E5B4A0",
"*+	c #E5C0B0",
"=+	c #EACCBE",
"-+	c #EED5C7",
";+	c #F2C7B1",
">+	c #EFC3AD",
",+	c #EDBDA8",
"'+	c #EBB9A3",
")+	c #E8B7A2",
"!+	c #E8BCAB",
"~+	c #E3B7A7",
"{+	c #E4B09F",
"]+	c #E5AD9A",
"^+	c #E5B5A1",
"/+	c #E8C1B0",
"(+	c #E9C9BA",
"_+	c #EBD0C2",
":+	c #F0D0C1",
"<+	c #ECCBBB",
"[+	c #ECCAB9",
"}+	c #E9C6B6",
"|+	c #E6C0AF",
"1+	c #E9C5B3",
"2+	c #E8CBBD",
"                                                ",
"                                                ",
"                                                ",
"                                                ",
"                                                ",
"                                                ",
"                                                ",
"                                                ",
"                    . + @                       ",
"              # $ % & * = - ; > , '             ",
"            ) ! ~ { ] ^ / ( _ : < [ } |         ",
"        1 2 3 4 5 6 7 8 9 0 a b c d e f g       ",
"      h i j k l m n o p q r s t u v w x y z A   ",
"    B C D E F G H I J K L M N O P Q R S T U V W ",
"  X Y Z `  ...+.@.#.$.%.&.*.=.-.;.>.,.'.).!.~.{.",
"].^./.(._.:.<.[.}.|.1.2.3.4.5.6.7.8.9.0.a.b.c.d.",
"  e.f.g.h.i.j.k.l.m.n.o.p.q.r.s.t.u.v.w.x.y.z.  ",
"    A.B.C.D.E.F.G.H.I.J.K.L.M.N.O.P.Q.R.S.T.    ",
"      U.V.W.X.Y.Z.`. +.+++@+#+$+%+&+*+=+-+      ",
"            ;+>+,+'+)+!+~+{+]+^+/+(+_+          ",
"                  :+<+[+}+|+1+2+                ",
"                                                ",
"                                                ",
"                                                "};
