/* XPM */
static const char * query_data_35_xpm[] = {
"35 35 159 2",
"  	c None",
". 	c #F6F6F6",
"+ 	c #EDEDED",
"@ 	c #E5E5E5",
"# 	c #DEDEDE",
"$ 	c #EEEEEE",
"% 	c #F7F7F7",
"& 	c #EAEAEA",
"* 	c #CFCFCF",
"= 	c #B0B0B0",
"- 	c #999999",
"; 	c #979797",
"> 	c #A4A4A4",
", 	c #A2A2A2",
"' 	c #9A9A9A",
") 	c #B4B4B4",
"! 	c #E0E0E0",
"~ 	c #A5A5A5",
"{ 	c #959595",
"] 	c #969696",
"^ 	c #828282",
"/ 	c #727272",
"( 	c #858585",
"_ 	c #929292",
": 	c #A8A8A8",
"< 	c #F8F8F8",
"[ 	c #BEBEBE",
"} 	c #8F8F8F",
"| 	c #989898",
"1 	c #8A8A8A",
"2 	c #898989",
"3 	c #838383",
"4 	c #A3A3A3",
"5 	c #909090",
"6 	c #C7C7C7",
"7 	c #FAFAFA",
"8 	c #E2E2E2",
"9 	c #A1A1A1",
"0 	c #8C8C8C",
"a 	c #9D9D9D",
"b 	c #484848",
"c 	c #333333",
"d 	c #E6E6E6",
"e 	c #9B9B9B",
"f 	c #A0A0A0",
"g 	c #9C9C9C",
"h 	c #D6D7D6",
"i 	c #A7A7A7",
"j 	c #F5F5F5",
"k 	c #ABABAB",
"l 	c #797979",
"m 	c #474747",
"n 	c #B7B7B7",
"o 	c #8B8B8B",
"p 	c #8D8D8D",
"q 	c #666666",
"r 	c #777777",
"s 	c #F2F2F2",
"t 	c #A9A9A9",
"u 	c #9E9E9E",
"v 	c #5C5C5C",
"w 	c #B8B8B8",
"x 	c #A5A4A5",
"y 	c #F4F4F4",
"z 	c #737373",
"A 	c #D2D2D2",
"B 	c #B1B1B1",
"C 	c #919191",
"D 	c #181818",
"E 	c #FBFBFB",
"F 	c #F1F1F1",
"G 	c #9F9F9F",
"H 	c #595959",
"I 	c #868686",
"J 	c #EFEFEF",
"K 	c #E9E9E9",
"L 	c #616161",
"M 	c #E1E1E1",
"N 	c #E3E3E3",
"O 	c #636363",
"P 	c #878787",
"Q 	c #7B7B7B",
"R 	c #6D6D6D",
"S 	c #888888",
"T 	c #656565",
"U 	c #DAD9DA",
"V 	c #717171",
"W 	c #6A6A6A",
"X 	c #686868",
"Y 	c #D9D944",
"Z 	c #666643",
"` 	c #4E4E46",
" .	c #575757",
"..	c #FEFDFE",
"+.	c #FFFF00",
"@.	c #333332",
"#.	c #686753",
"$.	c #787A78",
"%.	c #918F91",
"&.	c #979997",
"*.	c #999899",
"=.	c #979897",
"-.	c #9A9C9A",
";.	c #8E8E8E",
">.	c #80845C",
",.	c #100F10",
"'.	c #000000",
").	c #777277",
"!.	c #C1C0C1",
"~.	c #6B686B",
"{.	c #151415",
"].	c #969596",
"^.	c #DBDBDB",
"/.	c #A3A2A3",
"(.	c #353235",
"_.	c #A09FA0",
":.	c #C0C0C0",
"<.	c #939393",
"[.	c #0B0A0B",
"}.	c #5D595D",
"|.	c #858685",
"1.	c #C8C8C8",
"2.	c #707470",
"3.	c #0F100F",
"4.	c #050505",
"5.	c #191A19",
"6.	c #6C6A6C",
"7.	c #7F817F",
"8.	c #BDBDBD",
"9.	c #676B67",
"0.	c #141514",
"a.	c #464446",
"b.	c #313431",
"c.	c #201E20",
"d.	c #4F4B4F",
"e.	c #908D90",
"f.	c #929392",
"g.	c #4B4D4B",
"h.	c #302D30",
"i.	c #706B70",
"j.	c #797579",
"k.	c #A1A2A1",
"l.	c #676867",
"m.	c #F3F3F3",
"n.	c #DFDFDF",
"o.	c #E8E8E8",
"p.	c #AFAFAF",
"q.	c #908F90",
"r.	c #949494",
"s.	c #B5B5B5",
"t.	c #FCFCFC",
"u.	c #CBCBCB",
"v.	c #A6A6A6",
"w.	c #D1D1D1",
"x.	c #ECECEC",
"y.	c #BABABA",
"z.	c #C1C1C1",
"A.	c #F0F0F0",
"B.	c #D3D3D3",
"                            . + @ # @ $ %                             ",
"                      & * = - ; > ; , ; ' ) * $                       ",
"                  ! ~ { ; ; ; ] ^ / ( ; ; ; ; _ : @                   ",
"              < [ } > | ; ; _ 1 2 3 1 2 { ; ; ' 4 5 6 7               ",
"            8 ~ 9 0 ; > , ; a a b c c c c c c c c c c c c c c b       ",
"          d : ' ' ; ~ e ' ~ f g c h h h h h h h h h h h h h h c       ",
"        $ i ; , ~ ' { 9 ~ ~ ; _ c h h h h h h h h h h h h h h c       ",
"      j k - ~ ~ ~ ] e ; > | > l c h h h h h h m m h h h h h h c       ",
"      n ' ~ ~ ~ | > ~ ~ ; o ; / c h h h h h h i i h h h h h h c       ",
"    & p ~ ~ ~ - 4 ~ ~ ~ ; ~ ~ q c h h h h i m m r h h h h h h c s     ",
"    t u ~ ~ g f ~ ~ ~ > | ~ ~ v c h h h h h h m m h h h h h h c w     ",
"  & ' ; ~ 4 - ~ ~ ~ ~ | x ~ _ q c h h h h h h m m h h h h h h c | y   ",
"  6 ~ ; ~ ; ~ ~ ~ ~ ~ ; ~ ~ l z c h h h h h h m m h h h h h h c 4 A   ",
"  B ~ ~ C g ~ ~ ~ ~ u u ~ ~ l z c h h h h i m D D m i h h h h c ~ n   ",
"E 9 ~ ~ ; | a ~ ~ ~ ; ~ ~ ~ q r c h h h h h h h h h h h h h h c ~ f   ",
"F ~ ~ , ' ~ G ; ' ~ ; ~ ~ ~ H I c h h h h h h h h h h h h h h c ~ > J ",
"K ~ ~ ; ~ ~ ~ ~ , { 0 ; ' C L I b c c c c c c c c c c c c c c b ~ ~ M ",
"N ~ ~ ; ~ ~ ~ ~ ~ | > ~ , z O L P Q R l I S P l z T v q l _ ~ ; ~ ~ U ",
"& ~ ~ ; ~ ~ ~ ~ ~ ; ~ ~ ~ V H R W X r z r q q l l S ~ ~ ~ ~ ~ ; ~ , + ",
"j | , ' ~ ~ ~ ~ ~ ; ~ ~ Y Z `  .v  .q l l _ ~ ~ ~ ; ~ ~ ~ ~ ~ ; ~ | ..",
"  G - G ~ ~ ~ ~ ~ ; ~ ~ +.@.#.$.o %.&.; ; *.=.; ; %.-.~ ~ ~ ~ ; G t   ",
"  w ;.9 ~ ~ ~ ~ ~ ; ~ ~ Y +.>.,.'.'.'.'.'.'.'.'.,.).~ ~ ~ ~ ~ | ; !.  ",
"  A a { - ~ ~ ~ ~ ; ~ ~ ~ ~ 4 ~.{.'.'.'.'.'.'.{.~.].~ ~ ~ > ; 5 > ^.  ",
"  F ~ ; 4 ; | > x | ~ ~ ~ ~ ~ /.~.,.'.'.'.'.'.(._.; ~ , ; | ~ ; i %   ",
"    :.; ~ ~ > | ;.<., ~ ~ ~ ~ ~ 4 ).'.'.'.'.'.[.}.|.; ' ~ ~ ~ ; 1.    ",
"    J | ~ ~ ~ ~ 4 - ' ; ; ; ; ; ; 1 2.3.'.'.4.5.[.'.6.7., > ~ e j     ",
"      8., ~ ~ ~ ~ ; ~ ~ ~ ~ ~ ~ ~ ; 4 9.0.'.a.e  .b.'.c.d.e.f 1.      ",
"      . - ~ ~ ~ ~ ; ~ ~ ~ ~ ~ ~ ~ ; ~ , 9.3.; ~ 9 f.g.h.'.i.g E       ",
"        + a ~ ~ ~ ; ~ ~ ~ ~ ~ ~ ~ ; ~ ~ 4 j.&.~ ~ ; k.e.l.<.m.        ",
"          n.g g ~ ; ~ ~ ~ ~ ~ ~ ~ ; ~ ~ ~ ~ -.~ ~ ; ~ e G o.          ",
"            J p.; q.g ~ ~ ~ ~ ~ ~ ; ~ ~ ~ ~ ~ ~ r.{ ; s.m.            ",
"              t.u.v.} ; ; ; ; ; ' _ | ; ; ; ; ; 5 v.w.                ",
"                  x.y.u ~ ~ ~ ~ , 5 > ~ ~ ~ ~ G z.A.                  ",
"                      . A !.k ~ ~ e ~ ~ k z.B.<                       ",
"                              . + @ + %                               "};
