/* XPM */
static const char * spin_plate_35_xpm[] = {
"35 35 214 2",
"  	c None",
". 	c #F6F6F6",
"+ 	c #EDEDED",
"@ 	c #E5E5E5",
"# 	c #DEDEDE",
"$ 	c #EEEEEE",
"% 	c #F7F7F7",
"& 	c #EAEAEA",
"* 	c #CFCFCF",
"= 	c #B0B0B0",
"- 	c #999999",
"; 	c #979797",
"> 	c #A4A4A4",
", 	c #A2A2A2",
"' 	c #9A9A9A",
") 	c #B4B4B4",
"! 	c #E0E0E0",
"~ 	c #A5A5A5",
"{ 	c #959595",
"] 	c #969696",
"^ 	c #828282",
"/ 	c #727272",
"( 	c #858585",
"_ 	c #929292",
": 	c #A8A8A8",
"< 	c #F8F8F8",
"[ 	c #BEBEBE",
"} 	c #8F8F8F",
"| 	c #989898",
"1 	c #8A8A8A",
"2 	c #898989",
"3 	c #838383",
"4 	c #A3A3A3",
"5 	c #909090",
"6 	c #C7C7C7",
"7 	c #FAFAFA",
"8 	c #E2E2E2",
"9 	c #A1A1A1",
"0 	c #8C8C8C",
"a 	c #9D9D9D",
"b 	c #9F9F9F",
"c 	c #9C9C9C",
"d 	c #A0A0A0",
"e 	c #8B8B8B",
"f 	c #A6A6A6",
"g 	c #E6E6E6",
"h 	c #9B9B9B",
"i 	c #AAAAAA",
"j 	c #ECECEC",
"k 	c #A7A7A7",
"l 	c #91322F",
"m 	c #7F6160",
"n 	c #ACACAC",
"o 	c #F3F3F3",
"p 	c #F5F5F5",
"q 	c #ABABAB",
"r 	c #9B5856",
"s 	c #9E5C5B",
"t 	c #9E9E9E",
"u 	c #9C5B59",
"v 	c #9C5A58",
"w 	c #F9F9F9",
"x 	c #B7B7B7",
"y 	c #9B615F",
"z 	c #9E5C5A",
"A 	c #9B5957",
"B 	c #FF5753",
"C 	c #BFBFBF",
"D 	c #8D8D8D",
"E 	c #9C5E5D",
"F 	c #9A6362",
"G 	c #E57370",
"H 	c #CAC6C6",
"I 	c #DDDDDD",
"J 	c #CBCBCB",
"K 	c #A19292",
"L 	c #9C6A69",
"M 	c #785A59",
"N 	c #F2F2F2",
"O 	c #A9A9A9",
"P 	c #B88483",
"Q 	c #FFFFFF",
"R 	c #795B5A",
"S 	c #B8B8B8",
"T 	c #7C5D5C",
"U 	c #9A8685",
"V 	c #9A5756",
"W 	c #795C5B",
"X 	c #F4F4F4",
"Y 	c #856E6D",
"Z 	c #809E8C",
"` 	c #4EA972",
" .	c #7E605F",
"..	c #D2D2D2",
"+.	c #B1B1B1",
"@.	c #37AE66",
"#.	c #666666",
"$.	c #37AD66",
"%.	c #785B59",
"&.	c #FBFBFB",
"*.	c #7E605E",
"=.	c #2B9254",
"-.	c #37915A",
";.	c #678C76",
">.	c #7A5C5B",
",.	c #F1F1F1",
"'.	c #498F65",
").	c #EFEFEF",
"!.	c #E9E9E9",
"~.	c #44875F",
"{.	c #468C61",
"].	c #E1E1E1",
"^.	c #E3E3E3",
"/.	c #955E5C",
"(.	c #935F5E",
"_.	c #DAD9DA",
":.	c #4CAC72",
"<.	c #578E6D",
"[.	c #5F8D72",
"}.	c #409060",
"|.	c #9C5D5C",
"1.	c #965C5B",
"2.	c #518F69",
"3.	c #FEFDFE",
"4.	c #439061",
"5.	c #4F9E6F",
"6.	c #4C9F6C",
"7.	c #509D6F",
"8.	c #4D9F6E",
"9.	c #936867",
"0.	c #D16562",
"a.	c #D66362",
"b.	c #D36561",
"c.	c #7F6B6B",
"d.	c #80696A",
"e.	c #9A9C9A",
"f.	c #8E8E8E",
"g.	c #658D75",
"h.	c #2C9154",
"i.	c #597964",
"j.	c #100F10",
"k.	c #000000",
"l.	c #7A767A",
"m.	c #C1C0C1",
"n.	c #329158",
"o.	c #3AAB67",
"p.	c #516B5C",
"q.	c #151415",
"r.	c #6B686B",
"s.	c #DBDBDB",
"t.	c #A5A4A5",
"u.	c #469063",
"v.	c #3BAB67",
"w.	c #353235",
"x.	c #9D9C9D",
"y.	c #C0C0C0",
"z.	c #939393",
"A.	c #319157",
"B.	c #5C7969",
"C.	c #0B0A0B",
"D.	c #5C585C",
"E.	c #979897",
"F.	c #C8C8C8",
"G.	c #8F9893",
"H.	c #319057",
"I.	c #0F100F",
"J.	c #050505",
"K.	c #191A19",
"L.	c #6C6A6C",
"M.	c #7F817F",
"N.	c #999899",
"O.	c #BDBDBD",
"P.	c #3EAA69",
"Q.	c #58655B",
"R.	c #141514",
"S.	c #444344",
"T.	c #575757",
"U.	c #313431",
"V.	c #201E20",
"W.	c #4F4B4F",
"X.	c #4E8F67",
"Y.	c #39AD67",
"Z.	c #6C8C78",
"`.	c #676B67",
" +	c #9E9F9E",
".+	c #4B4D4B",
"++	c #302D30",
"@+	c #6A646A",
"#+	c #8BA796",
"$+	c #2B9154",
"%+	c #3AAD68",
"&+	c #588E6E",
"*+	c #6B8D78",
"=+	c #797579",
"-+	c #8D908D",
";+	c #BFBCBF",
">+	c #656665",
",+	c #DFDFDF",
"'+	c #3F8D5E",
")+	c #5BAB7A",
"!+	c #618D73",
"~+	c #8F918F",
"{+	c #E8E8E8",
"]+	c #AFAFAF",
"^+	c #908F90",
"/+	c #638570",
"(+	c #949494",
"_+	c #B5B5B5",
":+	c #FCFCFC",
"<+	c #D1D1D1",
"[+	c #BABABA",
"}+	c #C1C1C1",
"|+	c #F0F0F0",
"1+	c #D3D3D3",
"                            . + @ # @ $ %                             ",
"                      & * = - ; > ; , ; ' ) * $                       ",
"                  ! ~ { ; ; ; ] ^ / ( ; ; ; ; _ : @                   ",
"              < [ } > | ; ; _ 1 2 3 1 2 { ; ; ' 4 5 6 7               ",
"            8 ~ 9 0 ; > , ; a a b ; c d - | ~ , ; e > f $             ",
"          g : ' ' ; ~ h ' ~ d c ~ ; ~ ; ~ > ; b ~ ; | c i j           ",
"        $ k ; , ~ ' { 9 l ~ ; ~ ~ ; ~ ~ ; ~ l m { a ~ d ; n o         ",
"      p q - ~ ~ ~ ] h ; r s m ~ ~ ; ~ ~ t u v m h ' ~ ~ ~ ; = w       ",
"      x ' ~ ~ ~ | s y z A B s m ' { - ; s s B s y s m ~ ~ ~ | C       ",
"    & D ~ ~ ~ s E F B B B B G H I I J K L B B B B B s s M ~ ~ 0 N     ",
"    O t ~ ~ s s B B B B B P I I Q I I I - P B B B B B B z R ~ ] S     ",
"  & ' ; ~ v s B B B B T s P d J I I J d - U B M s B B B B V W ; | X   ",
"  6 ~ ; r A B B B m M m s m Y Z - - - Z ` m s  .R m s B B B A m 4 ..  ",
"  +.~ ~ A B B B W m @.@.m m @.@.@.I #.@.@.$.m m ~ ~ %.r B B B m ~ x   ",
"&.9 ~ ~ s B B B *.=.@.@.@.@.@.@.@.I #.@.@.@.-.;.- ~ ~ s B B B >.~ d   ",
",.~ ~ , y B B B m @.@.@.@.@.@.@.@.I #.@.@.@.@.'.; > | s B B B M ~ > ).",
"!.~ ~ ; s B B B s M @.@.@.@.@.@.@.@.@.@.@.@.@.=.~.{.s E B B B M ~ ~ ].",
"^.~ ~ ; m s B B B /.m @.@.@.@.@.@.@.@.@.@.@.@.@.@.(.y B B B m M ~ ~ _.",
"& ~ ~ ; ~ m s B B B y m :.<.[.}.@.@.@.@.@.@.@.@.|.1.B B B m m ; ~ , + ",
"p | , ' ~ ~ m s B B B s s m ~ 2.=.@.@.@.@.@.s s s B B B m m ~ ; ~ | 3.",
"  b - b ~ ~ ~ m m 1.B B B m ~ 4.=.5.6.7.8.6.9.0.a.b.c.c.d.e.~ ; b O   ",
"  S f.9 ~ ~ ~ ~ ~ %.m m m m ~ g.h.i.j.k.k.k.k.k.k.k.k.j.l.~ ~ | ; m.  ",
"  ..a { - ~ ~ ~ ~ ; ~ ~ ~ ~ ~ ~ n.o.p.q.k.k.k.k.k.k.q.r.4 > ; 5 > s.  ",
"  ,.~ ; 4 ; | > t.| ~ ~ ~ ~ ~ ~ u.@.v.p.j.k.k.k.k.k.w.x.; | ~ ; k %   ",
"    y.; ~ ~ > | f.z., ~ ~ ~ ~ ~ A.@.@.o.B.k.k.k.k.k.C.D.E.~ ~ ; F.    ",
"    ).| ~ ~ ~ ~ 4 - ' ; ; ; ; G.H.@.@.@.@.i.I.k.k.J.K.C.k.L.M.N.o     ",
"      O., ~ ~ ~ ~ ; ~ ~ ~ ~ ~ ~ u.@.@.@.@.P.Q.R.k.S.h T.U.k.V.W.      ",
"      . - ~ ~ ~ ~ ; ~ ~ ~ ~ ~ ~ X.=.@.@.Y.[.Z.`.I.f.~ 9  +.+++k.@+    ",
"        + a ~ ~ ~ ; ~ ~ ~ ~ ~ ~ #+$+@.%+&+*+~ 4 =+-+~ ~ ~ a ;+>+      ",
"          ,+c c ~ ; ~ ~ ~ ~ ~ ~ ~ '+)+!+*+~ ~ ~ ~ ~+~ h b {+          ",
"            ).]+; ^+c ~ ~ ~ ~ ~ ~ /+*+*+~ ~ ~ ~ (+{ ; _+o             ",
"              :+J f } ; ; ; ; ; ' _ | ; ; ; ; ; 5 f <+                ",
"                  j [+t ~ ~ ~ ~ , 5 > ~ ~ ~ ~ b }+|+                  ",
"                      . ..m.q ~ ~ h ~ ~ q }+1+<                       ",
"                              . + @ + %                               "};
